<mxfile host="app.diagrams.net" modified="2023-12-03T16:47:01.901Z" agent="Mozilla/5.0 (Windows NT 10.0; Win64; x64) AppleWebKit/537.36 (KHTML, like Gecko) Chrome/119.0.0.0 Safari/537.36" etag="bzU_ceIxnC0npgd1aSne" version="22.1.5" type="device" pages="2">
  <diagram name="Page-1" id="Bh6OA0xNfVZtEJfHLBHy">
    <mxGraphModel dx="1034" dy="694" grid="1" gridSize="10" guides="1" tooltips="1" connect="1" arrows="1" fold="1" page="1" pageScale="1" pageWidth="3300" pageHeight="4681" math="0" shadow="0">
      <root>
        <mxCell id="0" />
        <mxCell id="1" parent="0" />
        <mxCell id="0aqBFH9IO-N5gLg-DHF9-1" value="Utilizador" style="rounded=0;whiteSpace=wrap;html=1;labelBackgroundColor=none;fillColor=#FAE5C7;strokeColor=#0F8B8D;fontColor=#143642;" parent="1" vertex="1">
          <mxGeometry x="680" y="880" width="120" height="80" as="geometry" />
        </mxCell>
        <mxCell id="0aqBFH9IO-N5gLg-DHF9-2" value="Anuncio" style="rounded=0;whiteSpace=wrap;html=1;labelBackgroundColor=none;fillColor=#FAE5C7;strokeColor=#0F8B8D;fontColor=#143642;" parent="1" vertex="1">
          <mxGeometry x="1380" y="880" width="120" height="80" as="geometry" />
        </mxCell>
        <mxCell id="0aqBFH9IO-N5gLg-DHF9-3" value="id_user" style="ellipse;whiteSpace=wrap;html=1;labelBackgroundColor=none;fillColor=#FAE5C7;strokeColor=#0F8B8D;fontColor=#143642;" parent="1" vertex="1">
          <mxGeometry x="560" y="880" width="80" height="80" as="geometry" />
        </mxCell>
        <mxCell id="0aqBFH9IO-N5gLg-DHF9-6" value="" style="endArrow=none;html=1;rounded=0;entryX=1;entryY=0.5;entryDx=0;entryDy=0;exitX=0;exitY=0.5;exitDx=0;exitDy=0;labelBackgroundColor=none;strokeColor=#A8201A;fontColor=default;" parent="1" source="0aqBFH9IO-N5gLg-DHF9-1" target="0aqBFH9IO-N5gLg-DHF9-3" edge="1">
          <mxGeometry width="50" height="50" relative="1" as="geometry">
            <mxPoint x="430" y="1140" as="sourcePoint" />
            <mxPoint x="480" y="1090" as="targetPoint" />
          </mxGeometry>
        </mxCell>
        <mxCell id="0aqBFH9IO-N5gLg-DHF9-14" value="Fazer" style="rhombus;whiteSpace=wrap;html=1;labelBackgroundColor=none;fillColor=#FAE5C7;strokeColor=#0F8B8D;fontColor=#143642;" parent="1" vertex="1">
          <mxGeometry x="1020" y="880" width="80" height="80" as="geometry" />
        </mxCell>
        <mxCell id="0aqBFH9IO-N5gLg-DHF9-30" value="" style="endArrow=none;html=1;rounded=0;entryX=0;entryY=0.5;entryDx=0;entryDy=0;exitX=1;exitY=0.5;exitDx=0;exitDy=0;labelBackgroundColor=none;strokeColor=#A8201A;fontColor=default;" parent="1" source="0aqBFH9IO-N5gLg-DHF9-1" target="0aqBFH9IO-N5gLg-DHF9-14" edge="1">
          <mxGeometry width="50" height="50" relative="1" as="geometry">
            <mxPoint x="800" y="940" as="sourcePoint" />
            <mxPoint x="920" y="940" as="targetPoint" />
          </mxGeometry>
        </mxCell>
        <mxCell id="0aqBFH9IO-N5gLg-DHF9-31" value="" style="endArrow=none;html=1;rounded=0;entryX=0;entryY=0.5;entryDx=0;entryDy=0;exitX=1;exitY=0.5;exitDx=0;exitDy=0;labelBackgroundColor=none;strokeColor=#A8201A;fontColor=default;" parent="1" source="0aqBFH9IO-N5gLg-DHF9-14" target="0aqBFH9IO-N5gLg-DHF9-2" edge="1">
          <mxGeometry width="50" height="50" relative="1" as="geometry">
            <mxPoint x="1000" y="870" as="sourcePoint" />
            <mxPoint x="1120" y="870" as="targetPoint" />
          </mxGeometry>
        </mxCell>
        <mxCell id="0aqBFH9IO-N5gLg-DHF9-32" value="1" style="text;html=1;strokeColor=none;fillColor=none;align=center;verticalAlign=middle;whiteSpace=wrap;rounded=0;labelBackgroundColor=none;fontColor=#143642;" parent="1" vertex="1">
          <mxGeometry x="820" y="920" width="60" height="30" as="geometry" />
        </mxCell>
        <mxCell id="0aqBFH9IO-N5gLg-DHF9-33" value="n" style="text;html=1;strokeColor=none;fillColor=none;align=center;verticalAlign=middle;whiteSpace=wrap;rounded=0;labelBackgroundColor=none;fontColor=#143642;" parent="1" vertex="1">
          <mxGeometry x="1250" y="920" width="60" height="30" as="geometry" />
        </mxCell>
        <mxCell id="0aqBFH9IO-N5gLg-DHF9-36" value="nome" style="ellipse;whiteSpace=wrap;html=1;labelBackgroundColor=none;fillColor=#FAE5C7;strokeColor=#0F8B8D;fontColor=#143642;" parent="1" vertex="1">
          <mxGeometry x="440" y="880" width="80" height="80" as="geometry" />
        </mxCell>
        <mxCell id="0aqBFH9IO-N5gLg-DHF9-37" value="" style="endArrow=none;html=1;rounded=0;entryX=1;entryY=0.5;entryDx=0;entryDy=0;exitX=0;exitY=0.5;exitDx=0;exitDy=0;labelBackgroundColor=none;strokeColor=#A8201A;fontColor=default;" parent="1" source="0aqBFH9IO-N5gLg-DHF9-3" target="0aqBFH9IO-N5gLg-DHF9-36" edge="1">
          <mxGeometry width="50" height="50" relative="1" as="geometry">
            <mxPoint x="520" y="920" as="sourcePoint" />
            <mxPoint x="320" y="1090" as="targetPoint" />
          </mxGeometry>
        </mxCell>
        <mxCell id="0aqBFH9IO-N5gLg-DHF9-38" value="idade" style="ellipse;whiteSpace=wrap;html=1;labelBackgroundColor=none;fillColor=#FAE5C7;strokeColor=#0F8B8D;fontColor=#143642;" parent="1" vertex="1">
          <mxGeometry x="320" y="880" width="80" height="80" as="geometry" />
        </mxCell>
        <mxCell id="0aqBFH9IO-N5gLg-DHF9-39" value="" style="endArrow=none;html=1;rounded=0;entryX=1;entryY=0.5;entryDx=0;entryDy=0;exitX=0;exitY=0.5;exitDx=0;exitDy=0;labelBackgroundColor=none;strokeColor=#A8201A;fontColor=default;" parent="1" source="0aqBFH9IO-N5gLg-DHF9-36" target="0aqBFH9IO-N5gLg-DHF9-38" edge="1">
          <mxGeometry width="50" height="50" relative="1" as="geometry">
            <mxPoint x="360" y="920" as="sourcePoint" />
            <mxPoint x="160" y="1090" as="targetPoint" />
          </mxGeometry>
        </mxCell>
        <mxCell id="0aqBFH9IO-N5gLg-DHF9-45" value="" style="endArrow=none;html=1;rounded=0;exitX=0.5;exitY=1;exitDx=0;exitDy=0;entryX=0.5;entryY=0;entryDx=0;entryDy=0;labelBackgroundColor=none;strokeColor=#A8201A;fontColor=default;" parent="1" source="0aqBFH9IO-N5gLg-DHF9-2" target="0aqBFH9IO-N5gLg-DHF9-46" edge="1">
          <mxGeometry width="50" height="50" relative="1" as="geometry">
            <mxPoint x="1434.5" y="975" as="sourcePoint" />
            <mxPoint x="1435" y="1030" as="targetPoint" />
          </mxGeometry>
        </mxCell>
        <mxCell id="0aqBFH9IO-N5gLg-DHF9-46" value="id_anuncio" style="ellipse;whiteSpace=wrap;html=1;labelBackgroundColor=none;fillColor=#FAE5C7;strokeColor=#0F8B8D;fontColor=#143642;" parent="1" vertex="1">
          <mxGeometry x="1395" y="1000" width="90" height="80" as="geometry" />
        </mxCell>
        <mxCell id="0aqBFH9IO-N5gLg-DHF9-47" value="" style="endArrow=none;html=1;rounded=0;exitX=0.5;exitY=1;exitDx=0;exitDy=0;entryX=0.5;entryY=0;entryDx=0;entryDy=0;labelBackgroundColor=none;strokeColor=#A8201A;fontColor=default;" parent="1" source="0aqBFH9IO-N5gLg-DHF9-46" target="0aqBFH9IO-N5gLg-DHF9-178" edge="1">
          <mxGeometry width="50" height="50" relative="1" as="geometry">
            <mxPoint x="1440" y="1120" as="sourcePoint" />
            <mxPoint x="1440" y="1120" as="targetPoint" />
          </mxGeometry>
        </mxCell>
        <mxCell id="0aqBFH9IO-N5gLg-DHF9-71" value="Tem" style="rhombus;whiteSpace=wrap;html=1;labelBackgroundColor=none;fillColor=#FAE5C7;strokeColor=#0F8B8D;fontColor=#143642;" parent="1" vertex="1">
          <mxGeometry x="1560" y="560" width="80" height="80" as="geometry" />
        </mxCell>
        <mxCell id="0aqBFH9IO-N5gLg-DHF9-72" value="" style="endArrow=none;html=1;rounded=0;entryX=0;entryY=0.5;entryDx=0;entryDy=0;labelBackgroundColor=none;strokeColor=#A8201A;fontColor=default;exitX=1;exitY=0.5;exitDx=0;exitDy=0;" parent="1" source="0aqBFH9IO-N5gLg-DHF9-2" target="0aqBFH9IO-N5gLg-DHF9-71" edge="1">
          <mxGeometry width="50" height="50" relative="1" as="geometry">
            <mxPoint x="1540" y="700" as="sourcePoint" />
            <mxPoint x="1130" y="679" as="targetPoint" />
          </mxGeometry>
        </mxCell>
        <mxCell id="0aqBFH9IO-N5gLg-DHF9-83" value="Keyword" style="rounded=0;whiteSpace=wrap;html=1;labelBackgroundColor=none;fillColor=#FAE5C7;strokeColor=#0F8B8D;fontColor=#143642;" parent="1" vertex="1">
          <mxGeometry x="1700" y="560" width="120" height="80" as="geometry" />
        </mxCell>
        <mxCell id="0aqBFH9IO-N5gLg-DHF9-84" value="Categoria" style="rounded=0;whiteSpace=wrap;html=1;labelBackgroundColor=none;fillColor=#FAE5C7;strokeColor=#0F8B8D;fontColor=#143642;" parent="1" vertex="1">
          <mxGeometry x="1700" y="720" width="120" height="80" as="geometry" />
        </mxCell>
        <mxCell id="0aqBFH9IO-N5gLg-DHF9-95" value="" style="endArrow=none;html=1;rounded=0;exitX=0;exitY=0.5;exitDx=0;exitDy=0;labelBackgroundColor=none;strokeColor=#A8201A;fontColor=default;entryX=1;entryY=0.5;entryDx=0;entryDy=0;" parent="1" source="0aqBFH9IO-N5gLg-DHF9-84" target="qqQ62KWjBmj_J0RQF5QH-36" edge="1">
          <mxGeometry width="50" height="50" relative="1" as="geometry">
            <mxPoint x="1520" y="900" as="sourcePoint" />
            <mxPoint x="1610" y="740" as="targetPoint" />
          </mxGeometry>
        </mxCell>
        <mxCell id="0aqBFH9IO-N5gLg-DHF9-96" value="" style="endArrow=none;html=1;rounded=0;exitX=0;exitY=0.5;exitDx=0;exitDy=0;entryX=1;entryY=0.5;entryDx=0;entryDy=0;labelBackgroundColor=none;strokeColor=#A8201A;fontColor=default;" parent="1" source="0aqBFH9IO-N5gLg-DHF9-83" target="0aqBFH9IO-N5gLg-DHF9-71" edge="1">
          <mxGeometry width="50" height="50" relative="1" as="geometry">
            <mxPoint x="1730" y="700" as="sourcePoint" />
            <mxPoint x="1640" y="570" as="targetPoint" />
          </mxGeometry>
        </mxCell>
        <mxCell id="0aqBFH9IO-N5gLg-DHF9-97" value="nome" style="ellipse;whiteSpace=wrap;html=1;labelBackgroundColor=none;fillColor=#FAE5C7;strokeColor=#0F8B8D;fontColor=#143642;" parent="1" vertex="1">
          <mxGeometry x="1980" y="720" width="80" height="80" as="geometry" />
        </mxCell>
        <mxCell id="0aqBFH9IO-N5gLg-DHF9-98" value="id_categoria" style="ellipse;whiteSpace=wrap;html=1;labelBackgroundColor=none;fillColor=#FAE5C7;strokeColor=#0F8B8D;fontColor=#143642;" parent="1" vertex="1">
          <mxGeometry x="1860" y="720" width="80" height="80" as="geometry" />
        </mxCell>
        <mxCell id="0aqBFH9IO-N5gLg-DHF9-99" value="" style="endArrow=none;html=1;rounded=0;entryX=1;entryY=0.5;entryDx=0;entryDy=0;exitX=0;exitY=0.5;exitDx=0;exitDy=0;labelBackgroundColor=none;strokeColor=#A8201A;fontColor=default;" parent="1" source="0aqBFH9IO-N5gLg-DHF9-97" target="0aqBFH9IO-N5gLg-DHF9-98" edge="1">
          <mxGeometry width="50" height="50" relative="1" as="geometry">
            <mxPoint x="1900" y="760" as="sourcePoint" />
            <mxPoint x="1700" y="930" as="targetPoint" />
          </mxGeometry>
        </mxCell>
        <mxCell id="0aqBFH9IO-N5gLg-DHF9-100" value="" style="endArrow=none;html=1;rounded=0;exitX=1;exitY=0.5;exitDx=0;exitDy=0;entryX=0;entryY=0.5;entryDx=0;entryDy=0;labelBackgroundColor=none;strokeColor=#A8201A;fontColor=default;" parent="1" source="0aqBFH9IO-N5gLg-DHF9-84" target="0aqBFH9IO-N5gLg-DHF9-98" edge="1">
          <mxGeometry width="50" height="50" relative="1" as="geometry">
            <mxPoint x="1820" y="760" as="sourcePoint" />
            <mxPoint x="1980" y="870" as="targetPoint" />
          </mxGeometry>
        </mxCell>
        <mxCell id="0aqBFH9IO-N5gLg-DHF9-101" value="keyword" style="ellipse;whiteSpace=wrap;html=1;labelBackgroundColor=none;fillColor=#FAE5C7;strokeColor=#0F8B8D;fontColor=#143642;" parent="1" vertex="1">
          <mxGeometry x="1980" y="560" width="80" height="80" as="geometry" />
        </mxCell>
        <mxCell id="0aqBFH9IO-N5gLg-DHF9-102" value="id_keyword" style="ellipse;whiteSpace=wrap;html=1;labelBackgroundColor=none;fillColor=#FAE5C7;strokeColor=#0F8B8D;fontColor=#143642;" parent="1" vertex="1">
          <mxGeometry x="1860" y="560" width="80" height="80" as="geometry" />
        </mxCell>
        <mxCell id="0aqBFH9IO-N5gLg-DHF9-103" value="" style="endArrow=none;html=1;rounded=0;entryX=1;entryY=0.5;entryDx=0;entryDy=0;exitX=0;exitY=0.5;exitDx=0;exitDy=0;labelBackgroundColor=none;strokeColor=#A8201A;fontColor=default;" parent="1" source="0aqBFH9IO-N5gLg-DHF9-101" target="0aqBFH9IO-N5gLg-DHF9-102" edge="1">
          <mxGeometry width="50" height="50" relative="1" as="geometry">
            <mxPoint x="1900" y="600" as="sourcePoint" />
            <mxPoint x="1700" y="770" as="targetPoint" />
          </mxGeometry>
        </mxCell>
        <mxCell id="0aqBFH9IO-N5gLg-DHF9-104" value="" style="endArrow=none;html=1;rounded=0;exitX=1;exitY=0.5;exitDx=0;exitDy=0;entryX=0;entryY=0.5;entryDx=0;entryDy=0;labelBackgroundColor=none;strokeColor=#A8201A;fontColor=default;" parent="1" source="0aqBFH9IO-N5gLg-DHF9-83" target="0aqBFH9IO-N5gLg-DHF9-102" edge="1">
          <mxGeometry width="50" height="50" relative="1" as="geometry">
            <mxPoint x="1820" y="600" as="sourcePoint" />
            <mxPoint x="1980" y="710" as="targetPoint" />
          </mxGeometry>
        </mxCell>
        <mxCell id="0aqBFH9IO-N5gLg-DHF9-106" value="n" style="text;html=1;strokeColor=none;fillColor=none;align=center;verticalAlign=middle;whiteSpace=wrap;rounded=0;labelBackgroundColor=none;fontColor=#143642;" parent="1" vertex="1">
          <mxGeometry x="1660" y="570" width="60" height="30" as="geometry" />
        </mxCell>
        <mxCell id="0aqBFH9IO-N5gLg-DHF9-107" value="1" style="text;html=1;strokeColor=none;fillColor=none;align=center;verticalAlign=middle;whiteSpace=wrap;rounded=0;labelBackgroundColor=none;fontColor=#143642;" parent="1" vertex="1">
          <mxGeometry x="1660" y="760" width="60" height="30" as="geometry" />
        </mxCell>
        <mxCell id="0aqBFH9IO-N5gLg-DHF9-125" value="Ter" style="rhombus;whiteSpace=wrap;html=1;labelBackgroundColor=none;fillColor=#FAE5C7;strokeColor=#0F8B8D;fontColor=#143642;" parent="1" vertex="1">
          <mxGeometry x="1400" y="360" width="80" height="80" as="geometry" />
        </mxCell>
        <mxCell id="0aqBFH9IO-N5gLg-DHF9-126" value="Comentário" style="rounded=0;whiteSpace=wrap;html=1;labelBackgroundColor=none;fillColor=#FAE5C7;strokeColor=#0F8B8D;fontColor=#143642;" parent="1" vertex="1">
          <mxGeometry x="1000" y="360" width="120" height="80" as="geometry" />
        </mxCell>
        <mxCell id="0aqBFH9IO-N5gLg-DHF9-127" value="" style="endArrow=none;html=1;rounded=0;exitX=1;exitY=0.5;exitDx=0;exitDy=0;entryX=0;entryY=0.5;entryDx=0;entryDy=0;labelBackgroundColor=none;strokeColor=#A8201A;fontColor=default;" parent="1" source="0aqBFH9IO-N5gLg-DHF9-126" target="0aqBFH9IO-N5gLg-DHF9-125" edge="1">
          <mxGeometry width="50" height="50" relative="1" as="geometry">
            <mxPoint x="990" y="260" as="sourcePoint" />
            <mxPoint x="1410" y="400" as="targetPoint" />
          </mxGeometry>
        </mxCell>
        <mxCell id="0aqBFH9IO-N5gLg-DHF9-128" value="" style="endArrow=none;html=1;rounded=0;entryX=0.5;entryY=1;entryDx=0;entryDy=0;exitX=0.5;exitY=0;exitDx=0;exitDy=0;labelBackgroundColor=none;strokeColor=#A8201A;fontColor=default;" parent="1" source="0aqBFH9IO-N5gLg-DHF9-2" target="0aqBFH9IO-N5gLg-DHF9-125" edge="1">
          <mxGeometry width="50" height="50" relative="1" as="geometry">
            <mxPoint x="1480" y="490" as="sourcePoint" />
            <mxPoint x="1570" y="450" as="targetPoint" />
          </mxGeometry>
        </mxCell>
        <mxCell id="0aqBFH9IO-N5gLg-DHF9-129" value="n" style="text;html=1;strokeColor=none;fillColor=none;align=center;verticalAlign=middle;whiteSpace=wrap;rounded=0;labelBackgroundColor=none;fontColor=#143642;" parent="1" vertex="1">
          <mxGeometry x="1100" y="400" width="60" height="30" as="geometry" />
        </mxCell>
        <mxCell id="0aqBFH9IO-N5gLg-DHF9-132" value="comentario" style="ellipse;whiteSpace=wrap;html=1;labelBackgroundColor=none;fillColor=#FAE5C7;strokeColor=#0F8B8D;fontColor=#143642;" parent="1" vertex="1">
          <mxGeometry x="1020" y="120" width="80" height="80" as="geometry" />
        </mxCell>
        <mxCell id="0aqBFH9IO-N5gLg-DHF9-133" value="id_comentario" style="ellipse;whiteSpace=wrap;html=1;labelBackgroundColor=none;fillColor=#FAE5C7;strokeColor=#0F8B8D;fontColor=#143642;" parent="1" vertex="1">
          <mxGeometry x="1020" y="240" width="80" height="80" as="geometry" />
        </mxCell>
        <mxCell id="0aqBFH9IO-N5gLg-DHF9-134" value="" style="endArrow=none;html=1;rounded=0;entryX=0.5;entryY=0;entryDx=0;entryDy=0;exitX=0.5;exitY=1;exitDx=0;exitDy=0;labelBackgroundColor=none;strokeColor=#A8201A;fontColor=default;" parent="1" source="0aqBFH9IO-N5gLg-DHF9-132" target="0aqBFH9IO-N5gLg-DHF9-133" edge="1">
          <mxGeometry width="50" height="50" relative="1" as="geometry">
            <mxPoint x="1110" y="140" as="sourcePoint" />
            <mxPoint x="910" y="310" as="targetPoint" />
          </mxGeometry>
        </mxCell>
        <mxCell id="0aqBFH9IO-N5gLg-DHF9-135" value="" style="endArrow=none;html=1;rounded=0;exitX=0.5;exitY=0;exitDx=0;exitDy=0;entryX=0.5;entryY=1;entryDx=0;entryDy=0;labelBackgroundColor=none;strokeColor=#A8201A;fontColor=default;" parent="1" source="0aqBFH9IO-N5gLg-DHF9-126" target="0aqBFH9IO-N5gLg-DHF9-133" edge="1">
          <mxGeometry width="50" height="50" relative="1" as="geometry">
            <mxPoint x="1030" y="140" as="sourcePoint" />
            <mxPoint x="1190" y="250" as="targetPoint" />
          </mxGeometry>
        </mxCell>
        <mxCell id="0aqBFH9IO-N5gLg-DHF9-136" value="Fazer" style="rhombus;whiteSpace=wrap;html=1;labelBackgroundColor=none;fillColor=#FAE5C7;strokeColor=#0F8B8D;fontColor=#143642;" parent="1" vertex="1">
          <mxGeometry x="700" y="360" width="80" height="80" as="geometry" />
        </mxCell>
        <mxCell id="0aqBFH9IO-N5gLg-DHF9-137" value="" style="endArrow=none;html=1;rounded=0;exitX=1;exitY=0.5;exitDx=0;exitDy=0;entryX=0;entryY=0.5;entryDx=0;entryDy=0;labelBackgroundColor=none;strokeColor=#A8201A;fontColor=default;" parent="1" source="0aqBFH9IO-N5gLg-DHF9-136" target="0aqBFH9IO-N5gLg-DHF9-126" edge="1">
          <mxGeometry width="50" height="50" relative="1" as="geometry">
            <mxPoint x="1330" y="610" as="sourcePoint" />
            <mxPoint x="1390" y="610" as="targetPoint" />
          </mxGeometry>
        </mxCell>
        <mxCell id="0aqBFH9IO-N5gLg-DHF9-138" value="" style="endArrow=none;html=1;rounded=0;exitX=0.5;exitY=0;exitDx=0;exitDy=0;entryX=0.5;entryY=1;entryDx=0;entryDy=0;labelBackgroundColor=none;strokeColor=#A8201A;fontColor=default;" parent="1" source="0aqBFH9IO-N5gLg-DHF9-1" target="0aqBFH9IO-N5gLg-DHF9-136" edge="1">
          <mxGeometry width="50" height="50" relative="1" as="geometry">
            <mxPoint x="1120" y="500" as="sourcePoint" />
            <mxPoint x="1200" y="500" as="targetPoint" />
          </mxGeometry>
        </mxCell>
        <mxCell id="0aqBFH9IO-N5gLg-DHF9-139" value="1" style="text;html=1;strokeColor=none;fillColor=none;align=center;verticalAlign=middle;whiteSpace=wrap;rounded=0;labelBackgroundColor=none;fontColor=#143642;" parent="1" vertex="1">
          <mxGeometry x="700" y="840" width="60" height="30" as="geometry" />
        </mxCell>
        <mxCell id="0aqBFH9IO-N5gLg-DHF9-140" value="n" style="text;html=1;strokeColor=none;fillColor=none;align=center;verticalAlign=middle;whiteSpace=wrap;rounded=0;labelBackgroundColor=none;fontColor=#143642;" parent="1" vertex="1">
          <mxGeometry x="960" y="360" width="60" height="30" as="geometry" />
        </mxCell>
        <mxCell id="0aqBFH9IO-N5gLg-DHF9-141" style="edgeStyle=orthogonalEdgeStyle;rounded=0;orthogonalLoop=1;jettySize=auto;html=1;exitX=0.5;exitY=1;exitDx=0;exitDy=0;labelBackgroundColor=none;strokeColor=#A8201A;fontColor=default;" parent="1" source="0aqBFH9IO-N5gLg-DHF9-133" target="0aqBFH9IO-N5gLg-DHF9-133" edge="1">
          <mxGeometry relative="1" as="geometry" />
        </mxCell>
        <mxCell id="0aqBFH9IO-N5gLg-DHF9-142" value="Status" style="rounded=0;whiteSpace=wrap;html=1;labelBackgroundColor=none;fillColor=#FAE5C7;strokeColor=#0F8B8D;fontColor=#143642;" parent="1" vertex="1">
          <mxGeometry x="680" y="1000" width="120" height="80" as="geometry" />
        </mxCell>
        <mxCell id="0aqBFH9IO-N5gLg-DHF9-144" value="" style="endArrow=none;html=1;rounded=0;entryX=0;entryY=0.5;entryDx=0;entryDy=0;labelBackgroundColor=none;strokeColor=#A8201A;fontColor=default;exitX=1;exitY=0.5;exitDx=0;exitDy=0;" parent="1" source="0aqBFH9IO-N5gLg-DHF9-142" target="0aqBFH9IO-N5gLg-DHF9-155" edge="1">
          <mxGeometry width="50" height="50" relative="1" as="geometry">
            <mxPoint x="780" y="1420" as="sourcePoint" />
            <mxPoint x="-210" y="1580" as="targetPoint" />
          </mxGeometry>
        </mxCell>
        <mxCell id="0aqBFH9IO-N5gLg-DHF9-150" value="id_status" style="ellipse;whiteSpace=wrap;html=1;labelBackgroundColor=none;fillColor=#FAE5C7;strokeColor=#0F8B8D;fontColor=#143642;" parent="1" vertex="1">
          <mxGeometry x="560" y="1000" width="80" height="80" as="geometry" />
        </mxCell>
        <mxCell id="0aqBFH9IO-N5gLg-DHF9-152" value="" style="endArrow=none;html=1;rounded=0;entryX=1;entryY=0.5;entryDx=0;entryDy=0;labelBackgroundColor=none;strokeColor=#A8201A;fontColor=default;exitX=0;exitY=0.5;exitDx=0;exitDy=0;" parent="1" source="0aqBFH9IO-N5gLg-DHF9-142" target="0aqBFH9IO-N5gLg-DHF9-150" edge="1">
          <mxGeometry width="50" height="50" relative="1" as="geometry">
            <mxPoint x="300" y="1030" as="sourcePoint" />
            <mxPoint x="490" y="1140" as="targetPoint" />
          </mxGeometry>
        </mxCell>
        <mxCell id="0aqBFH9IO-N5gLg-DHF9-155" value="Tem" style="rhombus;whiteSpace=wrap;html=1;labelBackgroundColor=none;fillColor=#FAE5C7;strokeColor=#0F8B8D;fontColor=#143642;" parent="1" vertex="1">
          <mxGeometry x="1020" y="1000" width="80" height="80" as="geometry" />
        </mxCell>
        <mxCell id="0aqBFH9IO-N5gLg-DHF9-156" value="" style="endArrow=none;html=1;rounded=0;exitX=1;exitY=0.5;exitDx=0;exitDy=0;entryX=0;entryY=0.5;entryDx=0;entryDy=0;labelBackgroundColor=none;strokeColor=#A8201A;fontColor=default;" parent="1" source="0aqBFH9IO-N5gLg-DHF9-155" target="0aqBFH9IO-N5gLg-DHF9-2" edge="1">
          <mxGeometry width="50" height="50" relative="1" as="geometry">
            <mxPoint x="1159" y="1060" as="sourcePoint" />
            <mxPoint x="1159" y="1130" as="targetPoint" />
          </mxGeometry>
        </mxCell>
        <mxCell id="0aqBFH9IO-N5gLg-DHF9-160" value="Avaliação" style="rounded=0;whiteSpace=wrap;html=1;labelBackgroundColor=none;fillColor=#FAE5C7;strokeColor=#0F8B8D;fontColor=#143642;" parent="1" vertex="1">
          <mxGeometry x="1000" y="520" width="120" height="80" as="geometry" />
        </mxCell>
        <mxCell id="0aqBFH9IO-N5gLg-DHF9-161" value="Fazer" style="rhombus;whiteSpace=wrap;html=1;labelBackgroundColor=none;fillColor=#FAE5C7;strokeColor=#0F8B8D;fontColor=#143642;" parent="1" vertex="1">
          <mxGeometry x="840" y="520" width="80" height="80" as="geometry" />
        </mxCell>
        <mxCell id="0aqBFH9IO-N5gLg-DHF9-162" value="" style="endArrow=none;html=1;rounded=0;entryX=0;entryY=0.5;entryDx=0;entryDy=0;labelBackgroundColor=none;strokeColor=#A8201A;fontColor=default;exitX=0.5;exitY=0;exitDx=0;exitDy=0;" parent="1" source="0aqBFH9IO-N5gLg-DHF9-1" target="0aqBFH9IO-N5gLg-DHF9-161" edge="1">
          <mxGeometry width="50" height="50" relative="1" as="geometry">
            <mxPoint x="790" y="370" as="sourcePoint" />
            <mxPoint x="810" y="10" as="targetPoint" />
          </mxGeometry>
        </mxCell>
        <mxCell id="0aqBFH9IO-N5gLg-DHF9-163" value="" style="endArrow=none;html=1;rounded=0;exitX=1;exitY=0.5;exitDx=0;exitDy=0;entryX=0;entryY=0.5;entryDx=0;entryDy=0;labelBackgroundColor=none;strokeColor=#A8201A;fontColor=default;" parent="1" source="0aqBFH9IO-N5gLg-DHF9-161" target="0aqBFH9IO-N5gLg-DHF9-160" edge="1">
          <mxGeometry width="50" height="50" relative="1" as="geometry">
            <mxPoint x="920" y="570" as="sourcePoint" />
            <mxPoint x="1010" y="570" as="targetPoint" />
          </mxGeometry>
        </mxCell>
        <mxCell id="0aqBFH9IO-N5gLg-DHF9-165" value="n" style="text;html=1;strokeColor=none;fillColor=none;align=center;verticalAlign=middle;whiteSpace=wrap;rounded=0;labelBackgroundColor=none;fontColor=#143642;" parent="1" vertex="1">
          <mxGeometry x="960" y="560" width="60" height="30" as="geometry" />
        </mxCell>
        <mxCell id="0aqBFH9IO-N5gLg-DHF9-166" value="id_avaliacao" style="ellipse;whiteSpace=wrap;html=1;labelBackgroundColor=none;fillColor=#FAE5C7;strokeColor=#0F8B8D;fontColor=#143642;" parent="1" vertex="1">
          <mxGeometry x="1170" y="520" width="80" height="80" as="geometry" />
        </mxCell>
        <mxCell id="0aqBFH9IO-N5gLg-DHF9-167" value="" style="endArrow=none;html=1;rounded=0;exitX=1;exitY=0.5;exitDx=0;exitDy=0;entryX=0;entryY=0.5;entryDx=0;entryDy=0;labelBackgroundColor=none;strokeColor=#A8201A;fontColor=default;" parent="1" source="0aqBFH9IO-N5gLg-DHF9-160" target="0aqBFH9IO-N5gLg-DHF9-166" edge="1">
          <mxGeometry width="50" height="50" relative="1" as="geometry">
            <mxPoint x="1160" y="560" as="sourcePoint" />
            <mxPoint x="1350" y="670" as="targetPoint" />
          </mxGeometry>
        </mxCell>
        <mxCell id="0aqBFH9IO-N5gLg-DHF9-168" value="avaliacao" style="ellipse;whiteSpace=wrap;html=1;labelBackgroundColor=none;fillColor=#FAE5C7;strokeColor=#0F8B8D;fontColor=#143642;" parent="1" vertex="1">
          <mxGeometry x="1290" y="520" width="80" height="80" as="geometry" />
        </mxCell>
        <mxCell id="0aqBFH9IO-N5gLg-DHF9-169" value="" style="endArrow=none;html=1;rounded=0;exitX=1;exitY=0.5;exitDx=0;exitDy=0;entryX=0;entryY=0.5;entryDx=0;entryDy=0;labelBackgroundColor=none;strokeColor=#A8201A;fontColor=default;" parent="1" source="0aqBFH9IO-N5gLg-DHF9-166" target="0aqBFH9IO-N5gLg-DHF9-168" edge="1">
          <mxGeometry width="50" height="50" relative="1" as="geometry">
            <mxPoint x="1250" y="560" as="sourcePoint" />
            <mxPoint x="1440" y="670" as="targetPoint" />
          </mxGeometry>
        </mxCell>
        <mxCell id="0aqBFH9IO-N5gLg-DHF9-173" value="data" style="ellipse;whiteSpace=wrap;html=1;labelBackgroundColor=none;fillColor=#FAE5C7;strokeColor=#0F8B8D;fontColor=#143642;" parent="1" vertex="1">
          <mxGeometry x="200" y="1000" width="80" height="80" as="geometry" />
        </mxCell>
        <mxCell id="0aqBFH9IO-N5gLg-DHF9-174" value="" style="endArrow=none;html=1;rounded=0;entryX=1;entryY=0.5;entryDx=0;entryDy=0;labelBackgroundColor=none;strokeColor=#A8201A;fontColor=default;exitX=0;exitY=0.5;exitDx=0;exitDy=0;" parent="1" source="0aqBFH9IO-N5gLg-DHF9-150" target="-uWIjM8Sss7zLSRLqRn6-7" edge="1">
          <mxGeometry width="50" height="50" relative="1" as="geometry">
            <mxPoint x="270" y="1070" as="sourcePoint" />
            <mxPoint x="600" y="1240" as="targetPoint" />
          </mxGeometry>
        </mxCell>
        <mxCell id="0aqBFH9IO-N5gLg-DHF9-175" value="hora" style="ellipse;whiteSpace=wrap;html=1;labelBackgroundColor=none;fillColor=#FAE5C7;strokeColor=#0F8B8D;fontColor=#143642;" parent="1" vertex="1">
          <mxGeometry x="320" y="1000" width="80" height="80" as="geometry" />
        </mxCell>
        <mxCell id="0aqBFH9IO-N5gLg-DHF9-176" value="" style="endArrow=none;html=1;rounded=0;exitX=1;exitY=0.5;exitDx=0;exitDy=0;entryX=0;entryY=0.5;entryDx=0;entryDy=0;labelBackgroundColor=none;strokeColor=#A8201A;fontColor=default;" parent="1" source="0aqBFH9IO-N5gLg-DHF9-173" target="0aqBFH9IO-N5gLg-DHF9-175" edge="1">
          <mxGeometry width="50" height="50" relative="1" as="geometry">
            <mxPoint x="295" y="1040" as="sourcePoint" />
            <mxPoint x="485" y="1150" as="targetPoint" />
          </mxGeometry>
        </mxCell>
        <mxCell id="0aqBFH9IO-N5gLg-DHF9-178" value="descriçao" style="ellipse;whiteSpace=wrap;html=1;labelBackgroundColor=none;fillColor=#FAE5C7;strokeColor=#0F8B8D;fontColor=#143642;" parent="1" vertex="1">
          <mxGeometry x="1395" y="1120" width="90" height="80" as="geometry" />
        </mxCell>
        <mxCell id="-uWIjM8Sss7zLSRLqRn6-7" value="descriçao" style="ellipse;whiteSpace=wrap;html=1;labelBackgroundColor=none;fillColor=#FAE5C7;strokeColor=#0F8B8D;fontColor=#143642;" parent="1" vertex="1">
          <mxGeometry x="440" y="1000" width="80" height="80" as="geometry" />
        </mxCell>
        <mxCell id="-uWIjM8Sss7zLSRLqRn6-8" value="" style="endArrow=none;html=1;rounded=0;exitX=1;exitY=0.5;exitDx=0;exitDy=0;entryX=0;entryY=0.5;entryDx=0;entryDy=0;labelBackgroundColor=none;strokeColor=#A8201A;fontColor=default;" parent="1" source="0aqBFH9IO-N5gLg-DHF9-175" target="-uWIjM8Sss7zLSRLqRn6-7" edge="1">
          <mxGeometry width="50" height="50" relative="1" as="geometry">
            <mxPoint x="405" y="1040" as="sourcePoint" />
            <mxPoint x="605" y="1150" as="targetPoint" />
          </mxGeometry>
        </mxCell>
        <mxCell id="-uWIjM8Sss7zLSRLqRn6-13" value="1" style="text;html=1;strokeColor=none;fillColor=none;align=center;verticalAlign=middle;whiteSpace=wrap;rounded=0;labelBackgroundColor=none;fontColor=#143642;" parent="1" vertex="1">
          <mxGeometry x="1400" y="800" width="60" height="30" as="geometry" />
        </mxCell>
        <mxCell id="qqQ62KWjBmj_J0RQF5QH-1" value="email" style="ellipse;whiteSpace=wrap;html=1;labelBackgroundColor=none;fillColor=#FAE5C7;strokeColor=#0F8B8D;fontColor=#143642;" parent="1" vertex="1">
          <mxGeometry x="200" y="880" width="80" height="80" as="geometry" />
        </mxCell>
        <mxCell id="qqQ62KWjBmj_J0RQF5QH-2" value="" style="endArrow=none;html=1;rounded=0;entryX=1;entryY=0.5;entryDx=0;entryDy=0;exitX=0;exitY=0.5;exitDx=0;exitDy=0;labelBackgroundColor=none;strokeColor=#A8201A;fontColor=default;" parent="1" source="0aqBFH9IO-N5gLg-DHF9-38" target="qqQ62KWjBmj_J0RQF5QH-1" edge="1">
          <mxGeometry width="50" height="50" relative="1" as="geometry">
            <mxPoint x="310" y="920" as="sourcePoint" />
            <mxPoint x="30" y="1090" as="targetPoint" />
          </mxGeometry>
        </mxCell>
        <mxCell id="qqQ62KWjBmj_J0RQF5QH-4" value="Região" style="rounded=0;whiteSpace=wrap;html=1;labelBackgroundColor=none;fillColor=#FAE5C7;strokeColor=#0F8B8D;fontColor=#143642;" parent="1" vertex="1">
          <mxGeometry x="1700" y="1120" width="120" height="80" as="geometry" />
        </mxCell>
        <mxCell id="qqQ62KWjBmj_J0RQF5QH-5" value="País" style="rounded=0;whiteSpace=wrap;html=1;labelBackgroundColor=none;fillColor=#FAE5C7;strokeColor=#0F8B8D;fontColor=#143642;" parent="1" vertex="1">
          <mxGeometry x="1700" y="1360" width="120" height="80" as="geometry" />
        </mxCell>
        <mxCell id="qqQ62KWjBmj_J0RQF5QH-6" value="Localidade" style="rounded=0;whiteSpace=wrap;html=1;labelBackgroundColor=none;fillColor=#FAE5C7;strokeColor=#0F8B8D;fontColor=#143642;" parent="1" vertex="1">
          <mxGeometry x="1700" y="880" width="120" height="80" as="geometry" />
        </mxCell>
        <mxCell id="qqQ62KWjBmj_J0RQF5QH-7" value="Anunciar /&lt;br&gt;Ter" style="rhombus;whiteSpace=wrap;html=1;labelBackgroundColor=none;fillColor=#FAE5C7;strokeColor=#0F8B8D;fontColor=#143642;" parent="1" vertex="1">
          <mxGeometry x="1560" y="880" width="80" height="80" as="geometry" />
        </mxCell>
        <mxCell id="qqQ62KWjBmj_J0RQF5QH-8" value="" style="endArrow=none;html=1;rounded=0;entryX=0;entryY=0.5;entryDx=0;entryDy=0;exitX=1;exitY=0.5;exitDx=0;exitDy=0;labelBackgroundColor=none;strokeColor=#A8201A;fontColor=default;" parent="1" source="qqQ62KWjBmj_J0RQF5QH-7" target="qqQ62KWjBmj_J0RQF5QH-6" edge="1">
          <mxGeometry width="50" height="50" relative="1" as="geometry">
            <mxPoint x="1740" y="930" as="sourcePoint" />
            <mxPoint x="1820" y="930" as="targetPoint" />
          </mxGeometry>
        </mxCell>
        <mxCell id="qqQ62KWjBmj_J0RQF5QH-9" value="Situar-se/&lt;br&gt;Ter" style="rhombus;whiteSpace=wrap;html=1;labelBackgroundColor=none;fillColor=#FAE5C7;strokeColor=#0F8B8D;fontColor=#143642;" parent="1" vertex="1">
          <mxGeometry x="1720" y="1000" width="80" height="80" as="geometry" />
        </mxCell>
        <mxCell id="qqQ62KWjBmj_J0RQF5QH-10" value="" style="endArrow=none;html=1;rounded=0;entryX=0.5;entryY=0;entryDx=0;entryDy=0;exitX=0.5;exitY=1;exitDx=0;exitDy=0;labelBackgroundColor=none;strokeColor=#A8201A;fontColor=default;" parent="1" source="qqQ62KWjBmj_J0RQF5QH-6" target="qqQ62KWjBmj_J0RQF5QH-9" edge="1">
          <mxGeometry width="50" height="50" relative="1" as="geometry">
            <mxPoint x="1550" y="1080" as="sourcePoint" />
            <mxPoint x="1650" y="1160" as="targetPoint" />
          </mxGeometry>
        </mxCell>
        <mxCell id="qqQ62KWjBmj_J0RQF5QH-11" value="" style="endArrow=none;html=1;rounded=0;entryX=0.5;entryY=0;entryDx=0;entryDy=0;exitX=0.5;exitY=1;exitDx=0;exitDy=0;labelBackgroundColor=none;strokeColor=#A8201A;fontColor=default;" parent="1" source="qqQ62KWjBmj_J0RQF5QH-9" target="qqQ62KWjBmj_J0RQF5QH-4" edge="1">
          <mxGeometry width="50" height="50" relative="1" as="geometry">
            <mxPoint x="1540" y="1280" as="sourcePoint" />
            <mxPoint x="1640" y="1300" as="targetPoint" />
          </mxGeometry>
        </mxCell>
        <mxCell id="qqQ62KWjBmj_J0RQF5QH-12" value="n" style="text;html=1;strokeColor=none;fillColor=none;align=center;verticalAlign=middle;whiteSpace=wrap;rounded=0;labelBackgroundColor=none;fontColor=#143642;" parent="1" vertex="1">
          <mxGeometry x="1660" y="920" width="60" height="30" as="geometry" />
        </mxCell>
        <mxCell id="qqQ62KWjBmj_J0RQF5QH-13" value="n" style="text;html=1;strokeColor=none;fillColor=none;align=center;verticalAlign=middle;whiteSpace=wrap;rounded=0;labelBackgroundColor=none;fontColor=#143642;" parent="1" vertex="1">
          <mxGeometry x="1740" y="960" width="60" height="30" as="geometry" />
        </mxCell>
        <mxCell id="qqQ62KWjBmj_J0RQF5QH-14" value="1" style="text;html=1;strokeColor=none;fillColor=none;align=center;verticalAlign=middle;whiteSpace=wrap;rounded=0;labelBackgroundColor=none;fontColor=#143642;" parent="1" vertex="1">
          <mxGeometry x="1740" y="1090" width="60" height="30" as="geometry" />
        </mxCell>
        <mxCell id="qqQ62KWjBmj_J0RQF5QH-15" value="" style="endArrow=none;html=1;rounded=0;exitX=1;exitY=0.5;exitDx=0;exitDy=0;entryX=0;entryY=0.5;entryDx=0;entryDy=0;labelBackgroundColor=none;strokeColor=#A8201A;fontColor=default;" parent="1" source="qqQ62KWjBmj_J0RQF5QH-6" target="qqQ62KWjBmj_J0RQF5QH-16" edge="1">
          <mxGeometry width="50" height="50" relative="1" as="geometry">
            <mxPoint x="1870" y="940" as="sourcePoint" />
            <mxPoint x="1870" y="920" as="targetPoint" />
          </mxGeometry>
        </mxCell>
        <mxCell id="qqQ62KWjBmj_J0RQF5QH-16" value="id_localidade" style="ellipse;whiteSpace=wrap;html=1;labelBackgroundColor=none;fillColor=#FAE5C7;strokeColor=#0F8B8D;fontColor=#143642;" parent="1" vertex="1">
          <mxGeometry x="1860" y="880" width="80" height="80" as="geometry" />
        </mxCell>
        <mxCell id="qqQ62KWjBmj_J0RQF5QH-17" value="" style="endArrow=none;html=1;rounded=0;exitX=1;exitY=0.5;exitDx=0;exitDy=0;entryX=0;entryY=0.5;entryDx=0;entryDy=0;labelBackgroundColor=none;strokeColor=#A8201A;fontColor=default;" parent="1" source="qqQ62KWjBmj_J0RQF5QH-16" target="qqQ62KWjBmj_J0RQF5QH-18" edge="1">
          <mxGeometry width="50" height="50" relative="1" as="geometry">
            <mxPoint x="1940" y="920" as="sourcePoint" />
            <mxPoint x="1990" y="920" as="targetPoint" />
          </mxGeometry>
        </mxCell>
        <mxCell id="qqQ62KWjBmj_J0RQF5QH-18" value="nome" style="ellipse;whiteSpace=wrap;html=1;labelBackgroundColor=none;fillColor=#FAE5C7;strokeColor=#0F8B8D;fontColor=#143642;" parent="1" vertex="1">
          <mxGeometry x="1980" y="880" width="80" height="80" as="geometry" />
        </mxCell>
        <mxCell id="qqQ62KWjBmj_J0RQF5QH-19" value="" style="endArrow=none;html=1;rounded=0;exitX=1;exitY=0.5;exitDx=0;exitDy=0;entryX=0;entryY=0.5;entryDx=0;entryDy=0;labelBackgroundColor=none;strokeColor=#A8201A;fontColor=default;" parent="1" source="qqQ62KWjBmj_J0RQF5QH-4" target="qqQ62KWjBmj_J0RQF5QH-20" edge="1">
          <mxGeometry width="50" height="50" relative="1" as="geometry">
            <mxPoint x="1820" y="1160" as="sourcePoint" />
            <mxPoint x="1870" y="1160" as="targetPoint" />
          </mxGeometry>
        </mxCell>
        <mxCell id="qqQ62KWjBmj_J0RQF5QH-20" value="id_regiao" style="ellipse;whiteSpace=wrap;html=1;labelBackgroundColor=none;fillColor=#FAE5C7;strokeColor=#0F8B8D;fontColor=#143642;" parent="1" vertex="1">
          <mxGeometry x="1860" y="1120" width="80" height="80" as="geometry" />
        </mxCell>
        <mxCell id="qqQ62KWjBmj_J0RQF5QH-21" value="" style="endArrow=none;html=1;rounded=0;exitX=1;exitY=0.5;exitDx=0;exitDy=0;entryX=0;entryY=0.5;entryDx=0;entryDy=0;labelBackgroundColor=none;strokeColor=#A8201A;fontColor=default;" parent="1" source="qqQ62KWjBmj_J0RQF5QH-20" target="qqQ62KWjBmj_J0RQF5QH-22" edge="1">
          <mxGeometry width="50" height="50" relative="1" as="geometry">
            <mxPoint x="1940" y="1160" as="sourcePoint" />
            <mxPoint x="1990" y="1160" as="targetPoint" />
          </mxGeometry>
        </mxCell>
        <mxCell id="qqQ62KWjBmj_J0RQF5QH-22" value="nome" style="ellipse;whiteSpace=wrap;html=1;labelBackgroundColor=none;fillColor=#FAE5C7;strokeColor=#0F8B8D;fontColor=#143642;" parent="1" vertex="1">
          <mxGeometry x="1980" y="1120" width="80" height="80" as="geometry" />
        </mxCell>
        <mxCell id="qqQ62KWjBmj_J0RQF5QH-23" value="" style="endArrow=none;html=1;rounded=0;exitX=1;exitY=0.5;exitDx=0;exitDy=0;entryX=0;entryY=0.5;entryDx=0;entryDy=0;labelBackgroundColor=none;strokeColor=#A8201A;fontColor=default;" parent="1" target="qqQ62KWjBmj_J0RQF5QH-24" edge="1">
          <mxGeometry width="50" height="50" relative="1" as="geometry">
            <mxPoint x="1820" y="1400" as="sourcePoint" />
            <mxPoint x="1870" y="1400" as="targetPoint" />
          </mxGeometry>
        </mxCell>
        <mxCell id="qqQ62KWjBmj_J0RQF5QH-24" value="id_pais" style="ellipse;whiteSpace=wrap;html=1;labelBackgroundColor=none;fillColor=#FAE5C7;strokeColor=#0F8B8D;fontColor=#143642;" parent="1" vertex="1">
          <mxGeometry x="1860" y="1360" width="80" height="80" as="geometry" />
        </mxCell>
        <mxCell id="qqQ62KWjBmj_J0RQF5QH-25" value="" style="endArrow=none;html=1;rounded=0;exitX=1;exitY=0.5;exitDx=0;exitDy=0;entryX=0;entryY=0.5;entryDx=0;entryDy=0;labelBackgroundColor=none;strokeColor=#A8201A;fontColor=default;" parent="1" source="qqQ62KWjBmj_J0RQF5QH-24" target="qqQ62KWjBmj_J0RQF5QH-26" edge="1">
          <mxGeometry width="50" height="50" relative="1" as="geometry">
            <mxPoint x="1940" y="1400" as="sourcePoint" />
            <mxPoint x="1990" y="1400" as="targetPoint" />
          </mxGeometry>
        </mxCell>
        <mxCell id="qqQ62KWjBmj_J0RQF5QH-26" value="nome" style="ellipse;whiteSpace=wrap;html=1;labelBackgroundColor=none;fillColor=#FAE5C7;strokeColor=#0F8B8D;fontColor=#143642;" parent="1" vertex="1">
          <mxGeometry x="1980" y="1360" width="80" height="80" as="geometry" />
        </mxCell>
        <mxCell id="qqQ62KWjBmj_J0RQF5QH-27" value="Situar-se/&lt;br&gt;Ter" style="rhombus;whiteSpace=wrap;html=1;labelBackgroundColor=none;fillColor=#FAE5C7;strokeColor=#0F8B8D;fontColor=#143642;" parent="1" vertex="1">
          <mxGeometry x="1720" y="1240" width="80" height="80" as="geometry" />
        </mxCell>
        <mxCell id="qqQ62KWjBmj_J0RQF5QH-28" value="" style="endArrow=none;html=1;rounded=0;entryX=0.5;entryY=0;entryDx=0;entryDy=0;exitX=0.5;exitY=1;exitDx=0;exitDy=0;labelBackgroundColor=none;strokeColor=#A8201A;fontColor=default;" parent="1" source="qqQ62KWjBmj_J0RQF5QH-4" target="qqQ62KWjBmj_J0RQF5QH-27" edge="1">
          <mxGeometry width="50" height="50" relative="1" as="geometry">
            <mxPoint x="1610" y="1270" as="sourcePoint" />
            <mxPoint x="1500" y="1470" as="targetPoint" />
          </mxGeometry>
        </mxCell>
        <mxCell id="qqQ62KWjBmj_J0RQF5QH-29" value="" style="endArrow=none;html=1;rounded=0;entryX=0.5;entryY=0;entryDx=0;entryDy=0;exitX=0.5;exitY=1;exitDx=0;exitDy=0;labelBackgroundColor=none;strokeColor=#A8201A;fontColor=default;" parent="1" source="qqQ62KWjBmj_J0RQF5QH-27" target="qqQ62KWjBmj_J0RQF5QH-5" edge="1">
          <mxGeometry width="50" height="50" relative="1" as="geometry">
            <mxPoint x="1390" y="1590" as="sourcePoint" />
            <mxPoint x="1610" y="1510" as="targetPoint" />
          </mxGeometry>
        </mxCell>
        <mxCell id="qqQ62KWjBmj_J0RQF5QH-30" value="n" style="text;html=1;strokeColor=none;fillColor=none;align=center;verticalAlign=middle;whiteSpace=wrap;rounded=0;labelBackgroundColor=none;fontColor=#143642;" parent="1" vertex="1">
          <mxGeometry x="1710" y="1200" width="60" height="30" as="geometry" />
        </mxCell>
        <mxCell id="qqQ62KWjBmj_J0RQF5QH-31" value="1" style="text;html=1;strokeColor=none;fillColor=none;align=center;verticalAlign=middle;whiteSpace=wrap;rounded=0;labelBackgroundColor=none;fontColor=#143642;" parent="1" vertex="1">
          <mxGeometry x="1710" y="1330" width="60" height="30" as="geometry" />
        </mxCell>
        <mxCell id="qqQ62KWjBmj_J0RQF5QH-34" value="" style="endArrow=none;html=1;rounded=0;entryX=0;entryY=0.5;entryDx=0;entryDy=0;exitX=1;exitY=0.5;exitDx=0;exitDy=0;labelBackgroundColor=none;strokeColor=#A8201A;fontColor=default;" parent="1" source="0aqBFH9IO-N5gLg-DHF9-2" target="qqQ62KWjBmj_J0RQF5QH-7" edge="1">
          <mxGeometry width="50" height="50" relative="1" as="geometry">
            <mxPoint x="1650" y="930" as="sourcePoint" />
            <mxPoint x="1730" y="930" as="targetPoint" />
          </mxGeometry>
        </mxCell>
        <mxCell id="qqQ62KWjBmj_J0RQF5QH-35" value="n" style="text;html=1;strokeColor=none;fillColor=none;align=center;verticalAlign=middle;whiteSpace=wrap;rounded=0;labelBackgroundColor=none;fontColor=#143642;" parent="1" vertex="1">
          <mxGeometry x="1485" y="920" width="60" height="30" as="geometry" />
        </mxCell>
        <mxCell id="qqQ62KWjBmj_J0RQF5QH-36" value="Tem" style="rhombus;whiteSpace=wrap;html=1;labelBackgroundColor=none;fillColor=#FAE5C7;strokeColor=#0F8B8D;fontColor=#143642;" parent="1" vertex="1">
          <mxGeometry x="1560" y="720" width="80" height="80" as="geometry" />
        </mxCell>
        <mxCell id="qqQ62KWjBmj_J0RQF5QH-37" value="" style="endArrow=none;html=1;rounded=0;entryX=0;entryY=0.5;entryDx=0;entryDy=0;labelBackgroundColor=none;strokeColor=#A8201A;fontColor=default;exitX=0.25;exitY=0;exitDx=0;exitDy=0;" parent="1" source="qqQ62KWjBmj_J0RQF5QH-35" target="qqQ62KWjBmj_J0RQF5QH-36" edge="1">
          <mxGeometry width="50" height="50" relative="1" as="geometry">
            <mxPoint x="1510" y="860" as="sourcePoint" />
            <mxPoint x="1100" y="839" as="targetPoint" />
          </mxGeometry>
        </mxCell>
        <mxCell id="qqQ62KWjBmj_J0RQF5QH-38" value="n" style="text;html=1;strokeColor=none;fillColor=none;align=center;verticalAlign=middle;whiteSpace=wrap;rounded=0;labelBackgroundColor=none;fontColor=#143642;" parent="1" vertex="1">
          <mxGeometry x="1490" y="880" width="60" height="30" as="geometry" />
        </mxCell>
        <mxCell id="qqQ62KWjBmj_J0RQF5QH-39" value="n" style="text;html=1;strokeColor=none;fillColor=none;align=center;verticalAlign=middle;whiteSpace=wrap;rounded=0;labelBackgroundColor=none;fontColor=#143642;" parent="1" vertex="1">
          <mxGeometry x="1470" y="850" width="60" height="30" as="geometry" />
        </mxCell>
        <mxCell id="qqQ62KWjBmj_J0RQF5QH-41" value="n" style="text;html=1;strokeColor=none;fillColor=none;align=center;verticalAlign=middle;whiteSpace=wrap;rounded=0;labelBackgroundColor=none;fontColor=#143642;" parent="1" vertex="1">
          <mxGeometry x="740" y="850" width="60" height="30" as="geometry" />
        </mxCell>
        <mxCell id="qqQ62KWjBmj_J0RQF5QH-42" value="Ter" style="rhombus;whiteSpace=wrap;html=1;labelBackgroundColor=none;fillColor=#FAE5C7;strokeColor=#0F8B8D;fontColor=#143642;" parent="1" vertex="1">
          <mxGeometry x="1020" y="640" width="80" height="80" as="geometry" />
        </mxCell>
        <mxCell id="qqQ62KWjBmj_J0RQF5QH-43" value="" style="endArrow=none;html=1;rounded=0;exitX=0.5;exitY=0;exitDx=0;exitDy=0;entryX=0.5;entryY=1;entryDx=0;entryDy=0;labelBackgroundColor=none;strokeColor=#A8201A;fontColor=default;" parent="1" source="qqQ62KWjBmj_J0RQF5QH-42" target="0aqBFH9IO-N5gLg-DHF9-160" edge="1">
          <mxGeometry width="50" height="50" relative="1" as="geometry">
            <mxPoint x="980" y="710" as="sourcePoint" />
            <mxPoint x="1030" y="710" as="targetPoint" />
          </mxGeometry>
        </mxCell>
        <mxCell id="qqQ62KWjBmj_J0RQF5QH-45" value="1" style="text;html=1;strokeColor=none;fillColor=none;align=center;verticalAlign=middle;whiteSpace=wrap;rounded=0;labelBackgroundColor=none;fontColor=#143642;" parent="1" vertex="1">
          <mxGeometry x="1040" y="600" width="60" height="30" as="geometry" />
        </mxCell>
        <mxCell id="qqQ62KWjBmj_J0RQF5QH-46" value="1" style="text;html=1;strokeColor=none;fillColor=none;align=center;verticalAlign=middle;whiteSpace=wrap;rounded=0;labelBackgroundColor=none;fontColor=#143642;" parent="1" vertex="1">
          <mxGeometry x="790" y="870" width="60" height="30" as="geometry" />
        </mxCell>
        <mxCell id="qqQ62KWjBmj_J0RQF5QH-49" value="1" style="text;html=1;strokeColor=none;fillColor=none;align=center;verticalAlign=middle;whiteSpace=wrap;rounded=0;labelBackgroundColor=none;fontColor=#143642;" parent="1" vertex="1">
          <mxGeometry x="780" y="1060" width="60" height="30" as="geometry" />
        </mxCell>
        <mxCell id="qqQ62KWjBmj_J0RQF5QH-50" value="n" style="text;html=1;strokeColor=none;fillColor=none;align=center;verticalAlign=middle;whiteSpace=wrap;rounded=0;labelBackgroundColor=none;fontColor=#143642;" parent="1" vertex="1">
          <mxGeometry x="1340" y="940" width="60" height="30" as="geometry" />
        </mxCell>
        <mxCell id="Et5qHcTadWFs08vnLvLA-1" value="Avaliar" style="rhombus;whiteSpace=wrap;html=1;labelBackgroundColor=none;fillColor=#FAE5C7;strokeColor=#0F8B8D;fontColor=#143642;" parent="1" vertex="1">
          <mxGeometry x="1020" y="760" width="80" height="80" as="geometry" />
        </mxCell>
        <mxCell id="Et5qHcTadWFs08vnLvLA-2" value="" style="endArrow=none;html=1;rounded=0;entryX=0;entryY=0.5;entryDx=0;entryDy=0;labelBackgroundColor=none;strokeColor=#A8201A;fontColor=default;exitX=1;exitY=0.5;exitDx=0;exitDy=0;" parent="1" source="0aqBFH9IO-N5gLg-DHF9-1" target="Et5qHcTadWFs08vnLvLA-1" edge="1">
          <mxGeometry width="50" height="50" relative="1" as="geometry">
            <mxPoint x="750" y="890" as="sourcePoint" />
            <mxPoint x="850" y="370" as="targetPoint" />
          </mxGeometry>
        </mxCell>
        <mxCell id="Et5qHcTadWFs08vnLvLA-3" value="" style="endArrow=none;html=1;rounded=0;entryX=0;entryY=0.5;entryDx=0;entryDy=0;labelBackgroundColor=none;strokeColor=#A8201A;fontColor=default;exitX=1;exitY=0.5;exitDx=0;exitDy=0;" parent="1" source="Et5qHcTadWFs08vnLvLA-1" target="0aqBFH9IO-N5gLg-DHF9-2" edge="1">
          <mxGeometry width="50" height="50" relative="1" as="geometry">
            <mxPoint x="1120" y="730" as="sourcePoint" />
            <mxPoint x="1340" y="580" as="targetPoint" />
          </mxGeometry>
        </mxCell>
        <mxCell id="Et5qHcTadWFs08vnLvLA-4" value="n" style="text;html=1;strokeColor=none;fillColor=none;align=center;verticalAlign=middle;whiteSpace=wrap;rounded=0;labelBackgroundColor=none;fontColor=#143642;" parent="1" vertex="1">
          <mxGeometry x="1320" y="870" width="60" height="30" as="geometry" />
        </mxCell>
        <mxCell id="Et5qHcTadWFs08vnLvLA-5" value="" style="endArrow=none;html=1;rounded=0;labelBackgroundColor=none;strokeColor=#A8201A;fontColor=default;exitX=0.5;exitY=0;exitDx=0;exitDy=0;entryX=0.5;entryY=1;entryDx=0;entryDy=0;" parent="1" source="0aqBFH9IO-N5gLg-DHF9-2" target="qqQ62KWjBmj_J0RQF5QH-42" edge="1">
          <mxGeometry width="50" height="50" relative="1" as="geometry">
            <mxPoint x="840" y="900" as="sourcePoint" />
            <mxPoint x="950" y="520" as="targetPoint" />
          </mxGeometry>
        </mxCell>
        <mxCell id="Et5qHcTadWFs08vnLvLA-8" value="n" style="text;html=1;strokeColor=none;fillColor=none;align=center;verticalAlign=middle;whiteSpace=wrap;rounded=0;labelBackgroundColor=none;fontColor=#143642;" parent="1" vertex="1">
          <mxGeometry x="1380" y="840" width="60" height="30" as="geometry" />
        </mxCell>
        <mxCell id="Et5qHcTadWFs08vnLvLA-10" value="Situar-se" style="rhombus;whiteSpace=wrap;html=1;labelBackgroundColor=none;fillColor=#FAE5C7;strokeColor=#0F8B8D;fontColor=#143642;" parent="1" vertex="1">
          <mxGeometry x="1560" y="1040" width="80" height="80" as="geometry" />
        </mxCell>
        <mxCell id="Et5qHcTadWFs08vnLvLA-11" value="" style="endArrow=none;html=1;rounded=0;exitX=1;exitY=1;exitDx=0;exitDy=0;entryX=0;entryY=0.5;entryDx=0;entryDy=0;labelBackgroundColor=none;strokeColor=#A8201A;fontColor=default;" parent="1" source="0aqBFH9IO-N5gLg-DHF9-2" target="Et5qHcTadWFs08vnLvLA-10" edge="1">
          <mxGeometry width="50" height="50" relative="1" as="geometry">
            <mxPoint x="1250" y="1360" as="sourcePoint" />
            <mxPoint x="1530" y="1240" as="targetPoint" />
          </mxGeometry>
        </mxCell>
        <mxCell id="Et5qHcTadWFs08vnLvLA-12" value="" style="endArrow=none;html=1;rounded=0;exitX=0;exitY=1;exitDx=0;exitDy=0;entryX=1;entryY=0.5;entryDx=0;entryDy=0;labelBackgroundColor=none;strokeColor=#A8201A;fontColor=default;" parent="1" source="qqQ62KWjBmj_J0RQF5QH-6" target="Et5qHcTadWFs08vnLvLA-10" edge="1">
          <mxGeometry width="50" height="50" relative="1" as="geometry">
            <mxPoint x="1510" y="970" as="sourcePoint" />
            <mxPoint x="1570" y="1090" as="targetPoint" />
          </mxGeometry>
        </mxCell>
        <mxCell id="Et5qHcTadWFs08vnLvLA-13" value="1" style="text;html=1;strokeColor=none;fillColor=none;align=center;verticalAlign=middle;whiteSpace=wrap;rounded=0;labelBackgroundColor=none;fontColor=#143642;" parent="1" vertex="1">
          <mxGeometry x="1650" y="970" width="60" height="30" as="geometry" />
        </mxCell>
        <mxCell id="Et5qHcTadWFs08vnLvLA-14" value="n" style="text;html=1;strokeColor=none;fillColor=none;align=center;verticalAlign=middle;whiteSpace=wrap;rounded=0;labelBackgroundColor=none;fontColor=#143642;" parent="1" vertex="1">
          <mxGeometry x="1490" y="970" width="60" height="30" as="geometry" />
        </mxCell>
      </root>
    </mxGraphModel>
  </diagram>
  <diagram id="tp4T6TuUKSpEQ3h8m29o" name="Page-2">
    <mxGraphModel dx="1246" dy="694" grid="1" gridSize="10" guides="1" tooltips="1" connect="1" arrows="1" fold="1" page="1" pageScale="1" pageWidth="3300" pageHeight="4681" math="0" shadow="0">
      <root>
        <mxCell id="0" />
        <mxCell id="1" parent="0" />
        <mxCell id="fUuvGY4VHOJeTKYVbZ2F-1" value="Utilizador" style="shape=table;startSize=30;container=1;collapsible=1;childLayout=tableLayout;fixedRows=1;rowLines=0;fontStyle=1;align=center;resizeLast=1;html=1;fillColor=#fad7ac;strokeColor=#b46504;" vertex="1" parent="1">
          <mxGeometry x="400" y="570" width="160" height="150" as="geometry" />
        </mxCell>
        <mxCell id="fUuvGY4VHOJeTKYVbZ2F-2" value="" style="shape=tableRow;horizontal=0;startSize=0;swimlaneHead=0;swimlaneBody=0;fillColor=#fad7ac;collapsible=0;dropTarget=0;points=[[0,0.5],[1,0.5]];portConstraint=eastwest;top=0;left=0;right=0;bottom=1;strokeColor=#b46504;" vertex="1" parent="fUuvGY4VHOJeTKYVbZ2F-1">
          <mxGeometry y="30" width="160" height="30" as="geometry" />
        </mxCell>
        <mxCell id="fUuvGY4VHOJeTKYVbZ2F-3" value="PK" style="shape=partialRectangle;connectable=0;fillColor=#fad7ac;top=0;left=0;bottom=0;right=0;fontStyle=1;overflow=hidden;whiteSpace=wrap;html=1;strokeColor=#b46504;" vertex="1" parent="fUuvGY4VHOJeTKYVbZ2F-2">
          <mxGeometry width="30" height="30" as="geometry">
            <mxRectangle width="30" height="30" as="alternateBounds" />
          </mxGeometry>
        </mxCell>
        <mxCell id="fUuvGY4VHOJeTKYVbZ2F-4" value="id_utilizador" style="shape=partialRectangle;connectable=0;fillColor=#fad7ac;top=0;left=0;bottom=0;right=0;align=left;spacingLeft=6;fontStyle=5;overflow=hidden;whiteSpace=wrap;html=1;strokeColor=#b46504;" vertex="1" parent="fUuvGY4VHOJeTKYVbZ2F-2">
          <mxGeometry x="30" width="130" height="30" as="geometry">
            <mxRectangle width="130" height="30" as="alternateBounds" />
          </mxGeometry>
        </mxCell>
        <mxCell id="fUuvGY4VHOJeTKYVbZ2F-5" value="" style="shape=tableRow;horizontal=0;startSize=0;swimlaneHead=0;swimlaneBody=0;fillColor=#fad7ac;collapsible=0;dropTarget=0;points=[[0,0.5],[1,0.5]];portConstraint=eastwest;top=0;left=0;right=0;bottom=0;strokeColor=#b46504;" vertex="1" parent="fUuvGY4VHOJeTKYVbZ2F-1">
          <mxGeometry y="60" width="160" height="30" as="geometry" />
        </mxCell>
        <mxCell id="fUuvGY4VHOJeTKYVbZ2F-6" value="" style="shape=partialRectangle;connectable=0;fillColor=#fad7ac;top=0;left=0;bottom=0;right=0;editable=1;overflow=hidden;whiteSpace=wrap;html=1;strokeColor=#b46504;" vertex="1" parent="fUuvGY4VHOJeTKYVbZ2F-5">
          <mxGeometry width="30" height="30" as="geometry">
            <mxRectangle width="30" height="30" as="alternateBounds" />
          </mxGeometry>
        </mxCell>
        <mxCell id="fUuvGY4VHOJeTKYVbZ2F-7" value="nome" style="shape=partialRectangle;connectable=0;fillColor=#fad7ac;top=0;left=0;bottom=0;right=0;align=left;spacingLeft=6;overflow=hidden;whiteSpace=wrap;html=1;strokeColor=#b46504;" vertex="1" parent="fUuvGY4VHOJeTKYVbZ2F-5">
          <mxGeometry x="30" width="130" height="30" as="geometry">
            <mxRectangle width="130" height="30" as="alternateBounds" />
          </mxGeometry>
        </mxCell>
        <mxCell id="fUuvGY4VHOJeTKYVbZ2F-8" value="" style="shape=tableRow;horizontal=0;startSize=0;swimlaneHead=0;swimlaneBody=0;fillColor=#fad7ac;collapsible=0;dropTarget=0;points=[[0,0.5],[1,0.5]];portConstraint=eastwest;top=0;left=0;right=0;bottom=0;strokeColor=#b46504;" vertex="1" parent="fUuvGY4VHOJeTKYVbZ2F-1">
          <mxGeometry y="90" width="160" height="30" as="geometry" />
        </mxCell>
        <mxCell id="fUuvGY4VHOJeTKYVbZ2F-9" value="" style="shape=partialRectangle;connectable=0;fillColor=#fad7ac;top=0;left=0;bottom=0;right=0;editable=1;overflow=hidden;whiteSpace=wrap;html=1;strokeColor=#b46504;" vertex="1" parent="fUuvGY4VHOJeTKYVbZ2F-8">
          <mxGeometry width="30" height="30" as="geometry">
            <mxRectangle width="30" height="30" as="alternateBounds" />
          </mxGeometry>
        </mxCell>
        <mxCell id="fUuvGY4VHOJeTKYVbZ2F-10" value="idade" style="shape=partialRectangle;connectable=0;fillColor=#fad7ac;top=0;left=0;bottom=0;right=0;align=left;spacingLeft=6;overflow=hidden;whiteSpace=wrap;html=1;strokeColor=#b46504;" vertex="1" parent="fUuvGY4VHOJeTKYVbZ2F-8">
          <mxGeometry x="30" width="130" height="30" as="geometry">
            <mxRectangle width="130" height="30" as="alternateBounds" />
          </mxGeometry>
        </mxCell>
        <mxCell id="fUuvGY4VHOJeTKYVbZ2F-11" value="" style="shape=tableRow;horizontal=0;startSize=0;swimlaneHead=0;swimlaneBody=0;fillColor=#fad7ac;collapsible=0;dropTarget=0;points=[[0,0.5],[1,0.5]];portConstraint=eastwest;top=0;left=0;right=0;bottom=0;strokeColor=#b46504;" vertex="1" parent="fUuvGY4VHOJeTKYVbZ2F-1">
          <mxGeometry y="120" width="160" height="30" as="geometry" />
        </mxCell>
        <mxCell id="fUuvGY4VHOJeTKYVbZ2F-12" value="" style="shape=partialRectangle;connectable=0;fillColor=#fad7ac;top=0;left=0;bottom=0;right=0;editable=1;overflow=hidden;whiteSpace=wrap;html=1;strokeColor=#b46504;" vertex="1" parent="fUuvGY4VHOJeTKYVbZ2F-11">
          <mxGeometry width="30" height="30" as="geometry">
            <mxRectangle width="30" height="30" as="alternateBounds" />
          </mxGeometry>
        </mxCell>
        <mxCell id="fUuvGY4VHOJeTKYVbZ2F-13" value="email" style="shape=partialRectangle;connectable=0;fillColor=#fad7ac;top=0;left=0;bottom=0;right=0;align=left;spacingLeft=6;overflow=hidden;whiteSpace=wrap;html=1;strokeColor=#b46504;" vertex="1" parent="fUuvGY4VHOJeTKYVbZ2F-11">
          <mxGeometry x="30" width="130" height="30" as="geometry">
            <mxRectangle width="130" height="30" as="alternateBounds" />
          </mxGeometry>
        </mxCell>
        <mxCell id="fUuvGY4VHOJeTKYVbZ2F-17" value="Anúncio_Criação" style="shape=table;startSize=30;container=1;collapsible=1;childLayout=tableLayout;fixedRows=1;rowLines=0;fontStyle=1;align=center;resizeLast=1;html=1;fillColor=#fad7ac;strokeColor=#b46504;" vertex="1" parent="1">
          <mxGeometry x="680" y="440" width="160" height="240" as="geometry" />
        </mxCell>
        <mxCell id="fUuvGY4VHOJeTKYVbZ2F-18" value="" style="shape=tableRow;horizontal=0;startSize=0;swimlaneHead=0;swimlaneBody=0;fillColor=#fad7ac;collapsible=0;dropTarget=0;points=[[0,0.5],[1,0.5]];portConstraint=eastwest;top=0;left=0;right=0;bottom=1;strokeColor=#b46504;" vertex="1" parent="fUuvGY4VHOJeTKYVbZ2F-17">
          <mxGeometry y="30" width="160" height="30" as="geometry" />
        </mxCell>
        <mxCell id="fUuvGY4VHOJeTKYVbZ2F-19" value="PK" style="shape=partialRectangle;connectable=0;fillColor=#fad7ac;top=0;left=0;bottom=0;right=0;fontStyle=1;overflow=hidden;whiteSpace=wrap;html=1;strokeColor=#b46504;" vertex="1" parent="fUuvGY4VHOJeTKYVbZ2F-18">
          <mxGeometry width="30" height="30" as="geometry">
            <mxRectangle width="30" height="30" as="alternateBounds" />
          </mxGeometry>
        </mxCell>
        <mxCell id="fUuvGY4VHOJeTKYVbZ2F-20" value="id_anúncio" style="shape=partialRectangle;connectable=0;fillColor=#fad7ac;top=0;left=0;bottom=0;right=0;align=left;spacingLeft=6;fontStyle=5;overflow=hidden;whiteSpace=wrap;html=1;strokeColor=#b46504;" vertex="1" parent="fUuvGY4VHOJeTKYVbZ2F-18">
          <mxGeometry x="30" width="130" height="30" as="geometry">
            <mxRectangle width="130" height="30" as="alternateBounds" />
          </mxGeometry>
        </mxCell>
        <mxCell id="fUuvGY4VHOJeTKYVbZ2F-21" value="" style="shape=tableRow;horizontal=0;startSize=0;swimlaneHead=0;swimlaneBody=0;fillColor=#fad7ac;collapsible=0;dropTarget=0;points=[[0,0.5],[1,0.5]];portConstraint=eastwest;top=0;left=0;right=0;bottom=0;strokeColor=#b46504;" vertex="1" parent="fUuvGY4VHOJeTKYVbZ2F-17">
          <mxGeometry y="60" width="160" height="30" as="geometry" />
        </mxCell>
        <mxCell id="fUuvGY4VHOJeTKYVbZ2F-22" value="" style="shape=partialRectangle;connectable=0;fillColor=#fad7ac;top=0;left=0;bottom=0;right=0;editable=1;overflow=hidden;whiteSpace=wrap;html=1;strokeColor=#b46504;" vertex="1" parent="fUuvGY4VHOJeTKYVbZ2F-21">
          <mxGeometry width="30" height="30" as="geometry">
            <mxRectangle width="30" height="30" as="alternateBounds" />
          </mxGeometry>
        </mxCell>
        <mxCell id="fUuvGY4VHOJeTKYVbZ2F-23" value="descrição" style="shape=partialRectangle;connectable=0;fillColor=#fad7ac;top=0;left=0;bottom=0;right=0;align=left;spacingLeft=6;overflow=hidden;whiteSpace=wrap;html=1;strokeColor=#b46504;" vertex="1" parent="fUuvGY4VHOJeTKYVbZ2F-21">
          <mxGeometry x="30" width="130" height="30" as="geometry">
            <mxRectangle width="130" height="30" as="alternateBounds" />
          </mxGeometry>
        </mxCell>
        <mxCell id="fUuvGY4VHOJeTKYVbZ2F-24" style="shape=tableRow;horizontal=0;startSize=0;swimlaneHead=0;swimlaneBody=0;fillColor=#fad7ac;collapsible=0;dropTarget=0;points=[[0,0.5],[1,0.5]];portConstraint=eastwest;top=0;left=0;right=0;bottom=0;strokeColor=#b46504;" vertex="1" parent="fUuvGY4VHOJeTKYVbZ2F-17">
          <mxGeometry y="90" width="160" height="30" as="geometry" />
        </mxCell>
        <mxCell id="fUuvGY4VHOJeTKYVbZ2F-25" value="FK" style="shape=partialRectangle;connectable=0;fillColor=#fad7ac;top=0;left=0;bottom=0;right=0;editable=1;overflow=hidden;whiteSpace=wrap;html=1;strokeColor=#b46504;" vertex="1" parent="fUuvGY4VHOJeTKYVbZ2F-24">
          <mxGeometry width="30" height="30" as="geometry">
            <mxRectangle width="30" height="30" as="alternateBounds" />
          </mxGeometry>
        </mxCell>
        <mxCell id="fUuvGY4VHOJeTKYVbZ2F-26" value="id_utilizador" style="shape=partialRectangle;connectable=0;fillColor=#fad7ac;top=0;left=0;bottom=0;right=0;align=left;spacingLeft=6;overflow=hidden;whiteSpace=wrap;html=1;strokeColor=#b46504;" vertex="1" parent="fUuvGY4VHOJeTKYVbZ2F-24">
          <mxGeometry x="30" width="130" height="30" as="geometry">
            <mxRectangle width="130" height="30" as="alternateBounds" />
          </mxGeometry>
        </mxCell>
        <mxCell id="fUuvGY4VHOJeTKYVbZ2F-27" style="shape=tableRow;horizontal=0;startSize=0;swimlaneHead=0;swimlaneBody=0;fillColor=#fad7ac;collapsible=0;dropTarget=0;points=[[0,0.5],[1,0.5]];portConstraint=eastwest;top=0;left=0;right=0;bottom=0;strokeColor=#b46504;" vertex="1" parent="fUuvGY4VHOJeTKYVbZ2F-17">
          <mxGeometry y="120" width="160" height="30" as="geometry" />
        </mxCell>
        <mxCell id="fUuvGY4VHOJeTKYVbZ2F-28" value="FK" style="shape=partialRectangle;connectable=0;fillColor=#fad7ac;top=0;left=0;bottom=0;right=0;editable=1;overflow=hidden;whiteSpace=wrap;html=1;strokeColor=#b46504;" vertex="1" parent="fUuvGY4VHOJeTKYVbZ2F-27">
          <mxGeometry width="30" height="30" as="geometry">
            <mxRectangle width="30" height="30" as="alternateBounds" />
          </mxGeometry>
        </mxCell>
        <mxCell id="fUuvGY4VHOJeTKYVbZ2F-29" value="id_localidade" style="shape=partialRectangle;connectable=0;fillColor=#fad7ac;top=0;left=0;bottom=0;right=0;align=left;spacingLeft=6;overflow=hidden;whiteSpace=wrap;html=1;strokeColor=#b46504;" vertex="1" parent="fUuvGY4VHOJeTKYVbZ2F-27">
          <mxGeometry x="30" width="130" height="30" as="geometry">
            <mxRectangle width="130" height="30" as="alternateBounds" />
          </mxGeometry>
        </mxCell>
        <mxCell id="y7LuZ_0A7PbIzp3d1Xs9-2" style="shape=tableRow;horizontal=0;startSize=0;swimlaneHead=0;swimlaneBody=0;fillColor=#fad7ac;collapsible=0;dropTarget=0;points=[[0,0.5],[1,0.5]];portConstraint=eastwest;top=0;left=0;right=0;bottom=0;strokeColor=#b46504;" vertex="1" parent="fUuvGY4VHOJeTKYVbZ2F-17">
          <mxGeometry y="150" width="160" height="30" as="geometry" />
        </mxCell>
        <mxCell id="y7LuZ_0A7PbIzp3d1Xs9-3" value="FK" style="shape=partialRectangle;connectable=0;fillColor=#fad7ac;top=0;left=0;bottom=0;right=0;editable=1;overflow=hidden;whiteSpace=wrap;html=1;strokeColor=#b46504;" vertex="1" parent="y7LuZ_0A7PbIzp3d1Xs9-2">
          <mxGeometry width="30" height="30" as="geometry">
            <mxRectangle width="30" height="30" as="alternateBounds" />
          </mxGeometry>
        </mxCell>
        <mxCell id="y7LuZ_0A7PbIzp3d1Xs9-4" value="id_categoria" style="shape=partialRectangle;connectable=0;fillColor=#fad7ac;top=0;left=0;bottom=0;right=0;align=left;spacingLeft=6;overflow=hidden;whiteSpace=wrap;html=1;strokeColor=#b46504;" vertex="1" parent="y7LuZ_0A7PbIzp3d1Xs9-2">
          <mxGeometry x="30" width="130" height="30" as="geometry">
            <mxRectangle width="130" height="30" as="alternateBounds" />
          </mxGeometry>
        </mxCell>
        <mxCell id="uNLPn-SzxVKE8QmWv7-G-1" style="shape=tableRow;horizontal=0;startSize=0;swimlaneHead=0;swimlaneBody=0;fillColor=#fad7ac;collapsible=0;dropTarget=0;points=[[0,0.5],[1,0.5]];portConstraint=eastwest;top=0;left=0;right=0;bottom=0;strokeColor=#b46504;" vertex="1" parent="fUuvGY4VHOJeTKYVbZ2F-17">
          <mxGeometry y="180" width="160" height="30" as="geometry" />
        </mxCell>
        <mxCell id="uNLPn-SzxVKE8QmWv7-G-2" value="FK" style="shape=partialRectangle;connectable=0;fillColor=#fad7ac;top=0;left=0;bottom=0;right=0;editable=1;overflow=hidden;whiteSpace=wrap;html=1;strokeColor=#b46504;" vertex="1" parent="uNLPn-SzxVKE8QmWv7-G-1">
          <mxGeometry width="30" height="30" as="geometry">
            <mxRectangle width="30" height="30" as="alternateBounds" />
          </mxGeometry>
        </mxCell>
        <mxCell id="uNLPn-SzxVKE8QmWv7-G-3" value="id_status" style="shape=partialRectangle;connectable=0;fillColor=#fad7ac;top=0;left=0;bottom=0;right=0;align=left;spacingLeft=6;overflow=hidden;whiteSpace=wrap;html=1;strokeColor=#b46504;" vertex="1" parent="uNLPn-SzxVKE8QmWv7-G-1">
          <mxGeometry x="30" width="130" height="30" as="geometry">
            <mxRectangle width="130" height="30" as="alternateBounds" />
          </mxGeometry>
        </mxCell>
        <mxCell id="lr6BkFhm6aB_RkrGeUvo-1" style="shape=tableRow;horizontal=0;startSize=0;swimlaneHead=0;swimlaneBody=0;fillColor=#fad7ac;collapsible=0;dropTarget=0;points=[[0,0.5],[1,0.5]];portConstraint=eastwest;top=0;left=0;right=0;bottom=0;strokeColor=#b46504;" vertex="1" parent="fUuvGY4VHOJeTKYVbZ2F-17">
          <mxGeometry y="210" width="160" height="30" as="geometry" />
        </mxCell>
        <mxCell id="lr6BkFhm6aB_RkrGeUvo-2" value="FK" style="shape=partialRectangle;connectable=0;fillColor=#fad7ac;top=0;left=0;bottom=0;right=0;editable=1;overflow=hidden;whiteSpace=wrap;html=1;strokeColor=#b46504;" vertex="1" parent="lr6BkFhm6aB_RkrGeUvo-1">
          <mxGeometry width="30" height="30" as="geometry">
            <mxRectangle width="30" height="30" as="alternateBounds" />
          </mxGeometry>
        </mxCell>
        <mxCell id="lr6BkFhm6aB_RkrGeUvo-3" value="id_avaliação" style="shape=partialRectangle;connectable=0;fillColor=#fad7ac;top=0;left=0;bottom=0;right=0;align=left;spacingLeft=6;overflow=hidden;whiteSpace=wrap;html=1;strokeColor=#b46504;" vertex="1" parent="lr6BkFhm6aB_RkrGeUvo-1">
          <mxGeometry x="30" width="130" height="30" as="geometry">
            <mxRectangle width="130" height="30" as="alternateBounds" />
          </mxGeometry>
        </mxCell>
        <mxCell id="fUuvGY4VHOJeTKYVbZ2F-30" value="" style="edgeStyle=entityRelationEdgeStyle;fontSize=12;html=1;endArrow=ERmany;endFill=0;rounded=0;startArrow=ERone;startFill=0;exitX=1;exitY=0.5;exitDx=0;exitDy=0;entryX=0;entryY=0.5;entryDx=0;entryDy=0;fillColor=#fad7ac;strokeColor=#a36519;" edge="1" parent="1" source="fUuvGY4VHOJeTKYVbZ2F-2" target="fUuvGY4VHOJeTKYVbZ2F-24">
          <mxGeometry width="100" height="100" relative="1" as="geometry">
            <mxPoint x="580" y="620" as="sourcePoint" />
            <mxPoint x="680" y="520" as="targetPoint" />
          </mxGeometry>
        </mxCell>
        <mxCell id="fUuvGY4VHOJeTKYVbZ2F-31" value="Anúncio_Avaliação" style="shape=table;startSize=30;container=1;collapsible=1;childLayout=tableLayout;fixedRows=1;rowLines=0;fontStyle=1;align=center;resizeLast=1;html=1;whiteSpace=wrap;fillColor=#fad7ac;strokeColor=#b46504;" vertex="1" parent="1">
          <mxGeometry x="680" y="120" width="160" height="270" as="geometry" />
        </mxCell>
        <mxCell id="fUuvGY4VHOJeTKYVbZ2F-32" value="" style="shape=tableRow;horizontal=0;startSize=0;swimlaneHead=0;swimlaneBody=0;fillColor=#fad7ac;collapsible=0;dropTarget=0;points=[[0,0.5],[1,0.5]];portConstraint=eastwest;top=0;left=0;right=0;bottom=0;html=1;strokeColor=#b46504;" vertex="1" parent="fUuvGY4VHOJeTKYVbZ2F-31">
          <mxGeometry y="30" width="160" height="30" as="geometry" />
        </mxCell>
        <mxCell id="fUuvGY4VHOJeTKYVbZ2F-33" value="PK,FK1" style="shape=partialRectangle;connectable=0;fillColor=#fad7ac;top=0;left=0;bottom=0;right=0;fontStyle=1;overflow=hidden;html=1;whiteSpace=wrap;strokeColor=#b46504;" vertex="1" parent="fUuvGY4VHOJeTKYVbZ2F-32">
          <mxGeometry width="60" height="30" as="geometry">
            <mxRectangle width="60" height="30" as="alternateBounds" />
          </mxGeometry>
        </mxCell>
        <mxCell id="fUuvGY4VHOJeTKYVbZ2F-34" value="id_utilizador" style="shape=partialRectangle;connectable=0;fillColor=#fad7ac;top=0;left=0;bottom=0;right=0;align=left;spacingLeft=6;fontStyle=5;overflow=hidden;html=1;whiteSpace=wrap;strokeColor=#b46504;" vertex="1" parent="fUuvGY4VHOJeTKYVbZ2F-32">
          <mxGeometry x="60" width="100" height="30" as="geometry">
            <mxRectangle width="100" height="30" as="alternateBounds" />
          </mxGeometry>
        </mxCell>
        <mxCell id="fUuvGY4VHOJeTKYVbZ2F-35" value="" style="shape=tableRow;horizontal=0;startSize=0;swimlaneHead=0;swimlaneBody=0;fillColor=#fad7ac;collapsible=0;dropTarget=0;points=[[0,0.5],[1,0.5]];portConstraint=eastwest;top=0;left=0;right=0;bottom=1;html=1;strokeColor=#b46504;" vertex="1" parent="fUuvGY4VHOJeTKYVbZ2F-31">
          <mxGeometry y="60" width="160" height="30" as="geometry" />
        </mxCell>
        <mxCell id="fUuvGY4VHOJeTKYVbZ2F-36" value="PK,FK2" style="shape=partialRectangle;connectable=0;fillColor=#fad7ac;top=0;left=0;bottom=0;right=0;fontStyle=1;overflow=hidden;html=1;whiteSpace=wrap;strokeColor=#b46504;" vertex="1" parent="fUuvGY4VHOJeTKYVbZ2F-35">
          <mxGeometry width="60" height="30" as="geometry">
            <mxRectangle width="60" height="30" as="alternateBounds" />
          </mxGeometry>
        </mxCell>
        <mxCell id="fUuvGY4VHOJeTKYVbZ2F-37" value="id_anúncio" style="shape=partialRectangle;connectable=0;fillColor=#fad7ac;top=0;left=0;bottom=0;right=0;align=left;spacingLeft=6;fontStyle=5;overflow=hidden;html=1;whiteSpace=wrap;strokeColor=#b46504;" vertex="1" parent="fUuvGY4VHOJeTKYVbZ2F-35">
          <mxGeometry x="60" width="100" height="30" as="geometry">
            <mxRectangle width="100" height="30" as="alternateBounds" />
          </mxGeometry>
        </mxCell>
        <mxCell id="fUuvGY4VHOJeTKYVbZ2F-38" value="" style="shape=tableRow;horizontal=0;startSize=0;swimlaneHead=0;swimlaneBody=0;fillColor=#fad7ac;collapsible=0;dropTarget=0;points=[[0,0.5],[1,0.5]];portConstraint=eastwest;top=0;left=0;right=0;bottom=0;html=1;strokeColor=#b46504;" vertex="1" parent="fUuvGY4VHOJeTKYVbZ2F-31">
          <mxGeometry y="90" width="160" height="30" as="geometry" />
        </mxCell>
        <mxCell id="fUuvGY4VHOJeTKYVbZ2F-39" value="" style="shape=partialRectangle;connectable=0;fillColor=#fad7ac;top=0;left=0;bottom=0;right=0;editable=1;overflow=hidden;html=1;whiteSpace=wrap;strokeColor=#b46504;" vertex="1" parent="fUuvGY4VHOJeTKYVbZ2F-38">
          <mxGeometry width="60" height="30" as="geometry">
            <mxRectangle width="60" height="30" as="alternateBounds" />
          </mxGeometry>
        </mxCell>
        <mxCell id="fUuvGY4VHOJeTKYVbZ2F-40" value="sucesso" style="shape=partialRectangle;connectable=0;fillColor=#fad7ac;top=0;left=0;bottom=0;right=0;align=left;spacingLeft=6;overflow=hidden;html=1;whiteSpace=wrap;strokeColor=#b46504;" vertex="1" parent="fUuvGY4VHOJeTKYVbZ2F-38">
          <mxGeometry x="60" width="100" height="30" as="geometry">
            <mxRectangle width="100" height="30" as="alternateBounds" />
          </mxGeometry>
        </mxCell>
        <mxCell id="fUuvGY4VHOJeTKYVbZ2F-41" value="" style="shape=tableRow;horizontal=0;startSize=0;swimlaneHead=0;swimlaneBody=0;fillColor=#fad7ac;collapsible=0;dropTarget=0;points=[[0,0.5],[1,0.5]];portConstraint=eastwest;top=0;left=0;right=0;bottom=0;html=1;strokeColor=#b46504;" vertex="1" parent="fUuvGY4VHOJeTKYVbZ2F-31">
          <mxGeometry y="120" width="160" height="30" as="geometry" />
        </mxCell>
        <mxCell id="fUuvGY4VHOJeTKYVbZ2F-42" value="" style="shape=partialRectangle;connectable=0;fillColor=#fad7ac;top=0;left=0;bottom=0;right=0;editable=1;overflow=hidden;html=1;whiteSpace=wrap;strokeColor=#b46504;" vertex="1" parent="fUuvGY4VHOJeTKYVbZ2F-41">
          <mxGeometry width="60" height="30" as="geometry">
            <mxRectangle width="60" height="30" as="alternateBounds" />
          </mxGeometry>
        </mxCell>
        <mxCell id="fUuvGY4VHOJeTKYVbZ2F-43" value="validarSucesso" style="shape=partialRectangle;connectable=0;fillColor=#fad7ac;top=0;left=0;bottom=0;right=0;align=left;spacingLeft=6;overflow=hidden;html=1;whiteSpace=wrap;strokeColor=#b46504;" vertex="1" parent="fUuvGY4VHOJeTKYVbZ2F-41">
          <mxGeometry x="60" width="100" height="30" as="geometry">
            <mxRectangle width="100" height="30" as="alternateBounds" />
          </mxGeometry>
        </mxCell>
        <mxCell id="fUuvGY4VHOJeTKYVbZ2F-44" style="shape=tableRow;horizontal=0;startSize=0;swimlaneHead=0;swimlaneBody=0;fillColor=#fad7ac;collapsible=0;dropTarget=0;points=[[0,0.5],[1,0.5]];portConstraint=eastwest;top=0;left=0;right=0;bottom=0;html=1;strokeColor=#b46504;" vertex="1" parent="fUuvGY4VHOJeTKYVbZ2F-31">
          <mxGeometry y="150" width="160" height="30" as="geometry" />
        </mxCell>
        <mxCell id="fUuvGY4VHOJeTKYVbZ2F-45" style="shape=partialRectangle;connectable=0;fillColor=#fad7ac;top=0;left=0;bottom=0;right=0;editable=1;overflow=hidden;html=1;whiteSpace=wrap;strokeColor=#b46504;" vertex="1" parent="fUuvGY4VHOJeTKYVbZ2F-44">
          <mxGeometry width="60" height="30" as="geometry">
            <mxRectangle width="60" height="30" as="alternateBounds" />
          </mxGeometry>
        </mxCell>
        <mxCell id="fUuvGY4VHOJeTKYVbZ2F-46" value="dataInício" style="shape=partialRectangle;connectable=0;fillColor=#fad7ac;top=0;left=0;bottom=0;right=0;align=left;spacingLeft=6;overflow=hidden;html=1;whiteSpace=wrap;strokeColor=#b46504;" vertex="1" parent="fUuvGY4VHOJeTKYVbZ2F-44">
          <mxGeometry x="60" width="100" height="30" as="geometry">
            <mxRectangle width="100" height="30" as="alternateBounds" />
          </mxGeometry>
        </mxCell>
        <mxCell id="fUuvGY4VHOJeTKYVbZ2F-47" style="shape=tableRow;horizontal=0;startSize=0;swimlaneHead=0;swimlaneBody=0;fillColor=#fad7ac;collapsible=0;dropTarget=0;points=[[0,0.5],[1,0.5]];portConstraint=eastwest;top=0;left=0;right=0;bottom=0;html=1;strokeColor=#b46504;" vertex="1" parent="fUuvGY4VHOJeTKYVbZ2F-31">
          <mxGeometry y="180" width="160" height="30" as="geometry" />
        </mxCell>
        <mxCell id="fUuvGY4VHOJeTKYVbZ2F-48" style="shape=partialRectangle;connectable=0;fillColor=#fad7ac;top=0;left=0;bottom=0;right=0;editable=1;overflow=hidden;html=1;whiteSpace=wrap;strokeColor=#b46504;" vertex="1" parent="fUuvGY4VHOJeTKYVbZ2F-47">
          <mxGeometry width="60" height="30" as="geometry">
            <mxRectangle width="60" height="30" as="alternateBounds" />
          </mxGeometry>
        </mxCell>
        <mxCell id="fUuvGY4VHOJeTKYVbZ2F-49" value="horaInício" style="shape=partialRectangle;connectable=0;fillColor=#fad7ac;top=0;left=0;bottom=0;right=0;align=left;spacingLeft=6;overflow=hidden;html=1;whiteSpace=wrap;strokeColor=#b46504;" vertex="1" parent="fUuvGY4VHOJeTKYVbZ2F-47">
          <mxGeometry x="60" width="100" height="30" as="geometry">
            <mxRectangle width="100" height="30" as="alternateBounds" />
          </mxGeometry>
        </mxCell>
        <mxCell id="fUuvGY4VHOJeTKYVbZ2F-50" style="shape=tableRow;horizontal=0;startSize=0;swimlaneHead=0;swimlaneBody=0;fillColor=#fad7ac;collapsible=0;dropTarget=0;points=[[0,0.5],[1,0.5]];portConstraint=eastwest;top=0;left=0;right=0;bottom=0;html=1;strokeColor=#b46504;" vertex="1" parent="fUuvGY4VHOJeTKYVbZ2F-31">
          <mxGeometry y="210" width="160" height="30" as="geometry" />
        </mxCell>
        <mxCell id="fUuvGY4VHOJeTKYVbZ2F-51" style="shape=partialRectangle;connectable=0;fillColor=#fad7ac;top=0;left=0;bottom=0;right=0;editable=1;overflow=hidden;html=1;whiteSpace=wrap;strokeColor=#b46504;" vertex="1" parent="fUuvGY4VHOJeTKYVbZ2F-50">
          <mxGeometry width="60" height="30" as="geometry">
            <mxRectangle width="60" height="30" as="alternateBounds" />
          </mxGeometry>
        </mxCell>
        <mxCell id="fUuvGY4VHOJeTKYVbZ2F-52" value="dataFim" style="shape=partialRectangle;connectable=0;fillColor=#fad7ac;top=0;left=0;bottom=0;right=0;align=left;spacingLeft=6;overflow=hidden;html=1;whiteSpace=wrap;strokeColor=#b46504;" vertex="1" parent="fUuvGY4VHOJeTKYVbZ2F-50">
          <mxGeometry x="60" width="100" height="30" as="geometry">
            <mxRectangle width="100" height="30" as="alternateBounds" />
          </mxGeometry>
        </mxCell>
        <mxCell id="fUuvGY4VHOJeTKYVbZ2F-53" style="shape=tableRow;horizontal=0;startSize=0;swimlaneHead=0;swimlaneBody=0;fillColor=#fad7ac;collapsible=0;dropTarget=0;points=[[0,0.5],[1,0.5]];portConstraint=eastwest;top=0;left=0;right=0;bottom=0;html=1;strokeColor=#b46504;" vertex="1" parent="fUuvGY4VHOJeTKYVbZ2F-31">
          <mxGeometry y="240" width="160" height="30" as="geometry" />
        </mxCell>
        <mxCell id="fUuvGY4VHOJeTKYVbZ2F-54" style="shape=partialRectangle;connectable=0;fillColor=#fad7ac;top=0;left=0;bottom=0;right=0;editable=1;overflow=hidden;html=1;whiteSpace=wrap;strokeColor=#b46504;" vertex="1" parent="fUuvGY4VHOJeTKYVbZ2F-53">
          <mxGeometry width="60" height="30" as="geometry">
            <mxRectangle width="60" height="30" as="alternateBounds" />
          </mxGeometry>
        </mxCell>
        <mxCell id="fUuvGY4VHOJeTKYVbZ2F-55" value="horaFim" style="shape=partialRectangle;connectable=0;fillColor=#fad7ac;top=0;left=0;bottom=0;right=0;align=left;spacingLeft=6;overflow=hidden;html=1;whiteSpace=wrap;strokeColor=#b46504;" vertex="1" parent="fUuvGY4VHOJeTKYVbZ2F-53">
          <mxGeometry x="60" width="100" height="30" as="geometry">
            <mxRectangle width="100" height="30" as="alternateBounds" />
          </mxGeometry>
        </mxCell>
        <mxCell id="fUuvGY4VHOJeTKYVbZ2F-56" value="" style="edgeStyle=entityRelationEdgeStyle;fontSize=12;html=1;endArrow=ERmany;endFill=0;rounded=0;startArrow=ERone;startFill=0;entryX=0;entryY=0.5;entryDx=0;entryDy=0;exitX=1;exitY=0.5;exitDx=0;exitDy=0;fillColor=#fad7ac;strokeColor=#a36519;" edge="1" parent="1" source="fUuvGY4VHOJeTKYVbZ2F-2" target="fUuvGY4VHOJeTKYVbZ2F-32">
          <mxGeometry width="100" height="100" relative="1" as="geometry">
            <mxPoint x="330" y="630" as="sourcePoint" />
            <mxPoint x="700" y="520" as="targetPoint" />
          </mxGeometry>
        </mxCell>
        <mxCell id="fUuvGY4VHOJeTKYVbZ2F-57" value="" style="edgeStyle=entityRelationEdgeStyle;fontSize=12;html=1;endArrow=ERmany;endFill=0;rounded=0;startArrow=ERone;startFill=0;exitX=1;exitY=0.5;exitDx=0;exitDy=0;entryX=1;entryY=0.5;entryDx=0;entryDy=0;fillColor=#fad7ac;strokeColor=#a36519;" edge="1" parent="1" source="fUuvGY4VHOJeTKYVbZ2F-18" target="fUuvGY4VHOJeTKYVbZ2F-35">
          <mxGeometry width="100" height="100" relative="1" as="geometry">
            <mxPoint x="1000" y="440" as="sourcePoint" />
            <mxPoint x="1000" y="700" as="targetPoint" />
          </mxGeometry>
        </mxCell>
        <mxCell id="fUuvGY4VHOJeTKYVbZ2F-58" value="Localidade" style="shape=table;startSize=30;container=1;collapsible=1;childLayout=tableLayout;fixedRows=1;rowLines=0;fontStyle=1;align=center;resizeLast=1;html=1;fillColor=#fad7ac;strokeColor=#b46504;" vertex="1" parent="1">
          <mxGeometry x="1240" y="530" width="160" height="120" as="geometry" />
        </mxCell>
        <mxCell id="fUuvGY4VHOJeTKYVbZ2F-59" value="" style="shape=tableRow;horizontal=0;startSize=0;swimlaneHead=0;swimlaneBody=0;fillColor=#fad7ac;collapsible=0;dropTarget=0;points=[[0,0.5],[1,0.5]];portConstraint=eastwest;top=0;left=0;right=0;bottom=1;strokeColor=#b46504;" vertex="1" parent="fUuvGY4VHOJeTKYVbZ2F-58">
          <mxGeometry y="30" width="160" height="30" as="geometry" />
        </mxCell>
        <mxCell id="fUuvGY4VHOJeTKYVbZ2F-60" value="PK" style="shape=partialRectangle;connectable=0;fillColor=#fad7ac;top=0;left=0;bottom=0;right=0;fontStyle=1;overflow=hidden;whiteSpace=wrap;html=1;strokeColor=#b46504;" vertex="1" parent="fUuvGY4VHOJeTKYVbZ2F-59">
          <mxGeometry width="30" height="30" as="geometry">
            <mxRectangle width="30" height="30" as="alternateBounds" />
          </mxGeometry>
        </mxCell>
        <mxCell id="fUuvGY4VHOJeTKYVbZ2F-61" value="id_localidade" style="shape=partialRectangle;connectable=0;fillColor=#fad7ac;top=0;left=0;bottom=0;right=0;align=left;spacingLeft=6;fontStyle=5;overflow=hidden;whiteSpace=wrap;html=1;strokeColor=#b46504;" vertex="1" parent="fUuvGY4VHOJeTKYVbZ2F-59">
          <mxGeometry x="30" width="130" height="30" as="geometry">
            <mxRectangle width="130" height="30" as="alternateBounds" />
          </mxGeometry>
        </mxCell>
        <mxCell id="fUuvGY4VHOJeTKYVbZ2F-62" value="" style="shape=tableRow;horizontal=0;startSize=0;swimlaneHead=0;swimlaneBody=0;fillColor=#fad7ac;collapsible=0;dropTarget=0;points=[[0,0.5],[1,0.5]];portConstraint=eastwest;top=0;left=0;right=0;bottom=0;strokeColor=#b46504;" vertex="1" parent="fUuvGY4VHOJeTKYVbZ2F-58">
          <mxGeometry y="60" width="160" height="30" as="geometry" />
        </mxCell>
        <mxCell id="fUuvGY4VHOJeTKYVbZ2F-63" value="" style="shape=partialRectangle;connectable=0;fillColor=#fad7ac;top=0;left=0;bottom=0;right=0;editable=1;overflow=hidden;whiteSpace=wrap;html=1;strokeColor=#b46504;" vertex="1" parent="fUuvGY4VHOJeTKYVbZ2F-62">
          <mxGeometry width="30" height="30" as="geometry">
            <mxRectangle width="30" height="30" as="alternateBounds" />
          </mxGeometry>
        </mxCell>
        <mxCell id="fUuvGY4VHOJeTKYVbZ2F-64" value="nome" style="shape=partialRectangle;connectable=0;fillColor=#fad7ac;top=0;left=0;bottom=0;right=0;align=left;spacingLeft=6;overflow=hidden;whiteSpace=wrap;html=1;strokeColor=#b46504;" vertex="1" parent="fUuvGY4VHOJeTKYVbZ2F-62">
          <mxGeometry x="30" width="130" height="30" as="geometry">
            <mxRectangle width="130" height="30" as="alternateBounds" />
          </mxGeometry>
        </mxCell>
        <mxCell id="fUuvGY4VHOJeTKYVbZ2F-68" style="shape=tableRow;horizontal=0;startSize=0;swimlaneHead=0;swimlaneBody=0;fillColor=#fad7ac;collapsible=0;dropTarget=0;points=[[0,0.5],[1,0.5]];portConstraint=eastwest;top=0;left=0;right=0;bottom=0;strokeColor=#b46504;" vertex="1" parent="fUuvGY4VHOJeTKYVbZ2F-58">
          <mxGeometry y="90" width="160" height="30" as="geometry" />
        </mxCell>
        <mxCell id="fUuvGY4VHOJeTKYVbZ2F-69" value="FK" style="shape=partialRectangle;connectable=0;fillColor=#fad7ac;top=0;left=0;bottom=0;right=0;editable=1;overflow=hidden;whiteSpace=wrap;html=1;strokeColor=#b46504;" vertex="1" parent="fUuvGY4VHOJeTKYVbZ2F-68">
          <mxGeometry width="30" height="30" as="geometry">
            <mxRectangle width="30" height="30" as="alternateBounds" />
          </mxGeometry>
        </mxCell>
        <mxCell id="fUuvGY4VHOJeTKYVbZ2F-70" value="id_região" style="shape=partialRectangle;connectable=0;fillColor=#fad7ac;top=0;left=0;bottom=0;right=0;align=left;spacingLeft=6;overflow=hidden;whiteSpace=wrap;html=1;strokeColor=#b46504;" vertex="1" parent="fUuvGY4VHOJeTKYVbZ2F-68">
          <mxGeometry x="30" width="130" height="30" as="geometry">
            <mxRectangle width="130" height="30" as="alternateBounds" />
          </mxGeometry>
        </mxCell>
        <mxCell id="fUuvGY4VHOJeTKYVbZ2F-71" value="" style="edgeStyle=entityRelationEdgeStyle;fontSize=12;html=1;endArrow=ERmany;endFill=0;rounded=0;startArrow=ERone;startFill=0;exitX=0;exitY=0.5;exitDx=0;exitDy=0;entryX=1;entryY=0.5;entryDx=0;entryDy=0;fillColor=#fad7ac;strokeColor=#a36519;" edge="1" parent="1" source="fUuvGY4VHOJeTKYVbZ2F-59" target="fUuvGY4VHOJeTKYVbZ2F-27">
          <mxGeometry width="100" height="100" relative="1" as="geometry">
            <mxPoint x="920" y="610" as="sourcePoint" />
            <mxPoint x="920" y="800" as="targetPoint" />
          </mxGeometry>
        </mxCell>
        <mxCell id="fUuvGY4VHOJeTKYVbZ2F-72" value="Região" style="shape=table;startSize=30;container=1;collapsible=1;childLayout=tableLayout;fixedRows=1;rowLines=0;fontStyle=1;align=center;resizeLast=1;html=1;fillColor=#fad7ac;strokeColor=#b46504;" vertex="1" parent="1">
          <mxGeometry x="1480" y="530" width="160" height="120" as="geometry" />
        </mxCell>
        <mxCell id="fUuvGY4VHOJeTKYVbZ2F-73" value="" style="shape=tableRow;horizontal=0;startSize=0;swimlaneHead=0;swimlaneBody=0;fillColor=#fad7ac;collapsible=0;dropTarget=0;points=[[0,0.5],[1,0.5]];portConstraint=eastwest;top=0;left=0;right=0;bottom=1;strokeColor=#b46504;" vertex="1" parent="fUuvGY4VHOJeTKYVbZ2F-72">
          <mxGeometry y="30" width="160" height="30" as="geometry" />
        </mxCell>
        <mxCell id="fUuvGY4VHOJeTKYVbZ2F-74" value="PK" style="shape=partialRectangle;connectable=0;fillColor=#fad7ac;top=0;left=0;bottom=0;right=0;fontStyle=1;overflow=hidden;whiteSpace=wrap;html=1;strokeColor=#b46504;" vertex="1" parent="fUuvGY4VHOJeTKYVbZ2F-73">
          <mxGeometry width="30" height="30" as="geometry">
            <mxRectangle width="30" height="30" as="alternateBounds" />
          </mxGeometry>
        </mxCell>
        <mxCell id="fUuvGY4VHOJeTKYVbZ2F-75" value="id_região" style="shape=partialRectangle;connectable=0;fillColor=#fad7ac;top=0;left=0;bottom=0;right=0;align=left;spacingLeft=6;fontStyle=5;overflow=hidden;whiteSpace=wrap;html=1;strokeColor=#b46504;" vertex="1" parent="fUuvGY4VHOJeTKYVbZ2F-73">
          <mxGeometry x="30" width="130" height="30" as="geometry">
            <mxRectangle width="130" height="30" as="alternateBounds" />
          </mxGeometry>
        </mxCell>
        <mxCell id="fUuvGY4VHOJeTKYVbZ2F-76" value="" style="shape=tableRow;horizontal=0;startSize=0;swimlaneHead=0;swimlaneBody=0;fillColor=#fad7ac;collapsible=0;dropTarget=0;points=[[0,0.5],[1,0.5]];portConstraint=eastwest;top=0;left=0;right=0;bottom=0;strokeColor=#b46504;" vertex="1" parent="fUuvGY4VHOJeTKYVbZ2F-72">
          <mxGeometry y="60" width="160" height="30" as="geometry" />
        </mxCell>
        <mxCell id="fUuvGY4VHOJeTKYVbZ2F-77" value="" style="shape=partialRectangle;connectable=0;fillColor=#fad7ac;top=0;left=0;bottom=0;right=0;editable=1;overflow=hidden;whiteSpace=wrap;html=1;strokeColor=#b46504;" vertex="1" parent="fUuvGY4VHOJeTKYVbZ2F-76">
          <mxGeometry width="30" height="30" as="geometry">
            <mxRectangle width="30" height="30" as="alternateBounds" />
          </mxGeometry>
        </mxCell>
        <mxCell id="fUuvGY4VHOJeTKYVbZ2F-78" value="nome" style="shape=partialRectangle;connectable=0;fillColor=#fad7ac;top=0;left=0;bottom=0;right=0;align=left;spacingLeft=6;overflow=hidden;whiteSpace=wrap;html=1;strokeColor=#b46504;" vertex="1" parent="fUuvGY4VHOJeTKYVbZ2F-76">
          <mxGeometry x="30" width="130" height="30" as="geometry">
            <mxRectangle width="130" height="30" as="alternateBounds" />
          </mxGeometry>
        </mxCell>
        <mxCell id="fUuvGY4VHOJeTKYVbZ2F-79" style="shape=tableRow;horizontal=0;startSize=0;swimlaneHead=0;swimlaneBody=0;fillColor=#fad7ac;collapsible=0;dropTarget=0;points=[[0,0.5],[1,0.5]];portConstraint=eastwest;top=0;left=0;right=0;bottom=0;strokeColor=#b46504;" vertex="1" parent="fUuvGY4VHOJeTKYVbZ2F-72">
          <mxGeometry y="90" width="160" height="30" as="geometry" />
        </mxCell>
        <mxCell id="fUuvGY4VHOJeTKYVbZ2F-80" value="FK" style="shape=partialRectangle;connectable=0;fillColor=#fad7ac;top=0;left=0;bottom=0;right=0;editable=1;overflow=hidden;whiteSpace=wrap;html=1;strokeColor=#b46504;" vertex="1" parent="fUuvGY4VHOJeTKYVbZ2F-79">
          <mxGeometry width="30" height="30" as="geometry">
            <mxRectangle width="30" height="30" as="alternateBounds" />
          </mxGeometry>
        </mxCell>
        <mxCell id="fUuvGY4VHOJeTKYVbZ2F-81" value="id_país" style="shape=partialRectangle;connectable=0;fillColor=#fad7ac;top=0;left=0;bottom=0;right=0;align=left;spacingLeft=6;overflow=hidden;whiteSpace=wrap;html=1;strokeColor=#b46504;" vertex="1" parent="fUuvGY4VHOJeTKYVbZ2F-79">
          <mxGeometry x="30" width="130" height="30" as="geometry">
            <mxRectangle width="130" height="30" as="alternateBounds" />
          </mxGeometry>
        </mxCell>
        <mxCell id="fUuvGY4VHOJeTKYVbZ2F-82" value="País" style="shape=table;startSize=30;container=1;collapsible=1;childLayout=tableLayout;fixedRows=1;rowLines=0;fontStyle=1;align=center;resizeLast=1;html=1;fillColor=#fad7ac;strokeColor=#b46504;" vertex="1" parent="1">
          <mxGeometry x="1720" y="530" width="160" height="90" as="geometry" />
        </mxCell>
        <mxCell id="fUuvGY4VHOJeTKYVbZ2F-83" value="" style="shape=tableRow;horizontal=0;startSize=0;swimlaneHead=0;swimlaneBody=0;fillColor=#fad7ac;collapsible=0;dropTarget=0;points=[[0,0.5],[1,0.5]];portConstraint=eastwest;top=0;left=0;right=0;bottom=1;strokeColor=#b46504;" vertex="1" parent="fUuvGY4VHOJeTKYVbZ2F-82">
          <mxGeometry y="30" width="160" height="30" as="geometry" />
        </mxCell>
        <mxCell id="fUuvGY4VHOJeTKYVbZ2F-84" value="PK" style="shape=partialRectangle;connectable=0;fillColor=#fad7ac;top=0;left=0;bottom=0;right=0;fontStyle=1;overflow=hidden;whiteSpace=wrap;html=1;strokeColor=#b46504;" vertex="1" parent="fUuvGY4VHOJeTKYVbZ2F-83">
          <mxGeometry width="30" height="30" as="geometry">
            <mxRectangle width="30" height="30" as="alternateBounds" />
          </mxGeometry>
        </mxCell>
        <mxCell id="fUuvGY4VHOJeTKYVbZ2F-85" value="id_país" style="shape=partialRectangle;connectable=0;fillColor=#fad7ac;top=0;left=0;bottom=0;right=0;align=left;spacingLeft=6;fontStyle=5;overflow=hidden;whiteSpace=wrap;html=1;strokeColor=#b46504;" vertex="1" parent="fUuvGY4VHOJeTKYVbZ2F-83">
          <mxGeometry x="30" width="130" height="30" as="geometry">
            <mxRectangle width="130" height="30" as="alternateBounds" />
          </mxGeometry>
        </mxCell>
        <mxCell id="fUuvGY4VHOJeTKYVbZ2F-86" value="" style="shape=tableRow;horizontal=0;startSize=0;swimlaneHead=0;swimlaneBody=0;fillColor=#fad7ac;collapsible=0;dropTarget=0;points=[[0,0.5],[1,0.5]];portConstraint=eastwest;top=0;left=0;right=0;bottom=0;strokeColor=#b46504;" vertex="1" parent="fUuvGY4VHOJeTKYVbZ2F-82">
          <mxGeometry y="60" width="160" height="30" as="geometry" />
        </mxCell>
        <mxCell id="fUuvGY4VHOJeTKYVbZ2F-87" value="" style="shape=partialRectangle;connectable=0;fillColor=#fad7ac;top=0;left=0;bottom=0;right=0;editable=1;overflow=hidden;whiteSpace=wrap;html=1;strokeColor=#b46504;" vertex="1" parent="fUuvGY4VHOJeTKYVbZ2F-86">
          <mxGeometry width="30" height="30" as="geometry">
            <mxRectangle width="30" height="30" as="alternateBounds" />
          </mxGeometry>
        </mxCell>
        <mxCell id="fUuvGY4VHOJeTKYVbZ2F-88" value="nome" style="shape=partialRectangle;connectable=0;fillColor=#fad7ac;top=0;left=0;bottom=0;right=0;align=left;spacingLeft=6;overflow=hidden;whiteSpace=wrap;html=1;strokeColor=#b46504;" vertex="1" parent="fUuvGY4VHOJeTKYVbZ2F-86">
          <mxGeometry x="30" width="130" height="30" as="geometry">
            <mxRectangle width="130" height="30" as="alternateBounds" />
          </mxGeometry>
        </mxCell>
        <mxCell id="fUuvGY4VHOJeTKYVbZ2F-89" value="" style="edgeStyle=entityRelationEdgeStyle;fontSize=12;html=1;endArrow=ERmany;endFill=0;rounded=0;startArrow=ERone;startFill=0;exitX=0;exitY=0.5;exitDx=0;exitDy=0;entryX=1;entryY=0.5;entryDx=0;entryDy=0;fillColor=#fad7ac;strokeColor=#a36519;" edge="1" parent="1" source="fUuvGY4VHOJeTKYVbZ2F-73" target="fUuvGY4VHOJeTKYVbZ2F-68">
          <mxGeometry width="100" height="100" relative="1" as="geometry">
            <mxPoint x="1480" y="680" as="sourcePoint" />
            <mxPoint x="1370" y="770" as="targetPoint" />
          </mxGeometry>
        </mxCell>
        <mxCell id="fUuvGY4VHOJeTKYVbZ2F-90" value="" style="edgeStyle=entityRelationEdgeStyle;fontSize=12;html=1;endArrow=ERmany;endFill=0;rounded=0;startArrow=ERone;startFill=0;exitX=0;exitY=0.5;exitDx=0;exitDy=0;entryX=1;entryY=0.5;entryDx=0;entryDy=0;fillColor=#fad7ac;strokeColor=#b46504;" edge="1" parent="1" source="fUuvGY4VHOJeTKYVbZ2F-83" target="fUuvGY4VHOJeTKYVbZ2F-79">
          <mxGeometry width="100" height="100" relative="1" as="geometry">
            <mxPoint x="1650" y="730" as="sourcePoint" />
            <mxPoint x="1560" y="820" as="targetPoint" />
          </mxGeometry>
        </mxCell>
        <mxCell id="PIZJghyqFYwjqWkfC2DP-1" value="Status" style="shape=table;startSize=30;container=1;collapsible=1;childLayout=tableLayout;fixedRows=1;rowLines=0;fontStyle=1;align=center;resizeLast=1;html=1;fillColor=#fad7ac;strokeColor=#b46504;" vertex="1" parent="1">
          <mxGeometry x="400" y="800" width="160" height="150" as="geometry" />
        </mxCell>
        <mxCell id="PIZJghyqFYwjqWkfC2DP-2" value="" style="shape=tableRow;horizontal=0;startSize=0;swimlaneHead=0;swimlaneBody=0;fillColor=#fad7ac;collapsible=0;dropTarget=0;points=[[0,0.5],[1,0.5]];portConstraint=eastwest;top=0;left=0;right=0;bottom=1;strokeColor=#b46504;" vertex="1" parent="PIZJghyqFYwjqWkfC2DP-1">
          <mxGeometry y="30" width="160" height="30" as="geometry" />
        </mxCell>
        <mxCell id="PIZJghyqFYwjqWkfC2DP-3" value="PK" style="shape=partialRectangle;connectable=0;fillColor=#fad7ac;top=0;left=0;bottom=0;right=0;fontStyle=1;overflow=hidden;whiteSpace=wrap;html=1;strokeColor=#b46504;" vertex="1" parent="PIZJghyqFYwjqWkfC2DP-2">
          <mxGeometry width="30" height="30" as="geometry">
            <mxRectangle width="30" height="30" as="alternateBounds" />
          </mxGeometry>
        </mxCell>
        <mxCell id="PIZJghyqFYwjqWkfC2DP-4" value="id_status" style="shape=partialRectangle;connectable=0;fillColor=#fad7ac;top=0;left=0;bottom=0;right=0;align=left;spacingLeft=6;fontStyle=5;overflow=hidden;whiteSpace=wrap;html=1;strokeColor=#b46504;" vertex="1" parent="PIZJghyqFYwjqWkfC2DP-2">
          <mxGeometry x="30" width="130" height="30" as="geometry">
            <mxRectangle width="130" height="30" as="alternateBounds" />
          </mxGeometry>
        </mxCell>
        <mxCell id="PIZJghyqFYwjqWkfC2DP-5" value="" style="shape=tableRow;horizontal=0;startSize=0;swimlaneHead=0;swimlaneBody=0;fillColor=#fad7ac;collapsible=0;dropTarget=0;points=[[0,0.5],[1,0.5]];portConstraint=eastwest;top=0;left=0;right=0;bottom=0;strokeColor=#b46504;" vertex="1" parent="PIZJghyqFYwjqWkfC2DP-1">
          <mxGeometry y="60" width="160" height="30" as="geometry" />
        </mxCell>
        <mxCell id="PIZJghyqFYwjqWkfC2DP-6" value="" style="shape=partialRectangle;connectable=0;fillColor=#fad7ac;top=0;left=0;bottom=0;right=0;editable=1;overflow=hidden;whiteSpace=wrap;html=1;strokeColor=#b46504;" vertex="1" parent="PIZJghyqFYwjqWkfC2DP-5">
          <mxGeometry width="30" height="30" as="geometry">
            <mxRectangle width="30" height="30" as="alternateBounds" />
          </mxGeometry>
        </mxCell>
        <mxCell id="PIZJghyqFYwjqWkfC2DP-7" value="descricão" style="shape=partialRectangle;connectable=0;fillColor=#fad7ac;top=0;left=0;bottom=0;right=0;align=left;spacingLeft=6;overflow=hidden;whiteSpace=wrap;html=1;strokeColor=#b46504;" vertex="1" parent="PIZJghyqFYwjqWkfC2DP-5">
          <mxGeometry x="30" width="130" height="30" as="geometry">
            <mxRectangle width="130" height="30" as="alternateBounds" />
          </mxGeometry>
        </mxCell>
        <mxCell id="PIZJghyqFYwjqWkfC2DP-8" value="" style="shape=tableRow;horizontal=0;startSize=0;swimlaneHead=0;swimlaneBody=0;fillColor=#fad7ac;collapsible=0;dropTarget=0;points=[[0,0.5],[1,0.5]];portConstraint=eastwest;top=0;left=0;right=0;bottom=0;strokeColor=#b46504;" vertex="1" parent="PIZJghyqFYwjqWkfC2DP-1">
          <mxGeometry y="90" width="160" height="30" as="geometry" />
        </mxCell>
        <mxCell id="PIZJghyqFYwjqWkfC2DP-9" value="" style="shape=partialRectangle;connectable=0;fillColor=#fad7ac;top=0;left=0;bottom=0;right=0;editable=1;overflow=hidden;whiteSpace=wrap;html=1;strokeColor=#b46504;" vertex="1" parent="PIZJghyqFYwjqWkfC2DP-8">
          <mxGeometry width="30" height="30" as="geometry">
            <mxRectangle width="30" height="30" as="alternateBounds" />
          </mxGeometry>
        </mxCell>
        <mxCell id="PIZJghyqFYwjqWkfC2DP-10" value="hora" style="shape=partialRectangle;connectable=0;fillColor=#fad7ac;top=0;left=0;bottom=0;right=0;align=left;spacingLeft=6;overflow=hidden;whiteSpace=wrap;html=1;strokeColor=#b46504;" vertex="1" parent="PIZJghyqFYwjqWkfC2DP-8">
          <mxGeometry x="30" width="130" height="30" as="geometry">
            <mxRectangle width="130" height="30" as="alternateBounds" />
          </mxGeometry>
        </mxCell>
        <mxCell id="PIZJghyqFYwjqWkfC2DP-11" value="" style="shape=tableRow;horizontal=0;startSize=0;swimlaneHead=0;swimlaneBody=0;fillColor=#fad7ac;collapsible=0;dropTarget=0;points=[[0,0.5],[1,0.5]];portConstraint=eastwest;top=0;left=0;right=0;bottom=0;strokeColor=#b46504;" vertex="1" parent="PIZJghyqFYwjqWkfC2DP-1">
          <mxGeometry y="120" width="160" height="30" as="geometry" />
        </mxCell>
        <mxCell id="PIZJghyqFYwjqWkfC2DP-12" value="" style="shape=partialRectangle;connectable=0;fillColor=#fad7ac;top=0;left=0;bottom=0;right=0;editable=1;overflow=hidden;whiteSpace=wrap;html=1;strokeColor=#b46504;" vertex="1" parent="PIZJghyqFYwjqWkfC2DP-11">
          <mxGeometry width="30" height="30" as="geometry">
            <mxRectangle width="30" height="30" as="alternateBounds" />
          </mxGeometry>
        </mxCell>
        <mxCell id="PIZJghyqFYwjqWkfC2DP-13" value="data" style="shape=partialRectangle;connectable=0;fillColor=#fad7ac;top=0;left=0;bottom=0;right=0;align=left;spacingLeft=6;overflow=hidden;whiteSpace=wrap;html=1;strokeColor=#b46504;" vertex="1" parent="PIZJghyqFYwjqWkfC2DP-11">
          <mxGeometry x="30" width="130" height="30" as="geometry">
            <mxRectangle width="130" height="30" as="alternateBounds" />
          </mxGeometry>
        </mxCell>
        <mxCell id="ShnQOhTQohzyvP2IiLJO-1" value="Avaliação" style="shape=table;startSize=30;container=1;collapsible=1;childLayout=tableLayout;fixedRows=1;rowLines=0;fontStyle=1;align=center;resizeLast=1;html=1;fillColor=#fad7ac;strokeColor=#b46504;" vertex="1" parent="1">
          <mxGeometry x="1000" y="800" width="160" height="90" as="geometry" />
        </mxCell>
        <mxCell id="ShnQOhTQohzyvP2IiLJO-2" value="" style="shape=tableRow;horizontal=0;startSize=0;swimlaneHead=0;swimlaneBody=0;fillColor=#fad7ac;collapsible=0;dropTarget=0;points=[[0,0.5],[1,0.5]];portConstraint=eastwest;top=0;left=0;right=0;bottom=1;strokeColor=#b46504;" vertex="1" parent="ShnQOhTQohzyvP2IiLJO-1">
          <mxGeometry y="30" width="160" height="30" as="geometry" />
        </mxCell>
        <mxCell id="ShnQOhTQohzyvP2IiLJO-3" value="PK" style="shape=partialRectangle;connectable=0;fillColor=#fad7ac;top=0;left=0;bottom=0;right=0;fontStyle=1;overflow=hidden;whiteSpace=wrap;html=1;strokeColor=#b46504;" vertex="1" parent="ShnQOhTQohzyvP2IiLJO-2">
          <mxGeometry width="30" height="30" as="geometry">
            <mxRectangle width="30" height="30" as="alternateBounds" />
          </mxGeometry>
        </mxCell>
        <mxCell id="ShnQOhTQohzyvP2IiLJO-4" value="id_avaliação" style="shape=partialRectangle;connectable=0;fillColor=#fad7ac;top=0;left=0;bottom=0;right=0;align=left;spacingLeft=6;fontStyle=5;overflow=hidden;whiteSpace=wrap;html=1;strokeColor=#b46504;" vertex="1" parent="ShnQOhTQohzyvP2IiLJO-2">
          <mxGeometry x="30" width="130" height="30" as="geometry">
            <mxRectangle width="130" height="30" as="alternateBounds" />
          </mxGeometry>
        </mxCell>
        <mxCell id="ShnQOhTQohzyvP2IiLJO-5" value="" style="shape=tableRow;horizontal=0;startSize=0;swimlaneHead=0;swimlaneBody=0;fillColor=#fad7ac;collapsible=0;dropTarget=0;points=[[0,0.5],[1,0.5]];portConstraint=eastwest;top=0;left=0;right=0;bottom=0;strokeColor=#b46504;" vertex="1" parent="ShnQOhTQohzyvP2IiLJO-1">
          <mxGeometry y="60" width="160" height="30" as="geometry" />
        </mxCell>
        <mxCell id="ShnQOhTQohzyvP2IiLJO-6" value="" style="shape=partialRectangle;connectable=0;fillColor=#fad7ac;top=0;left=0;bottom=0;right=0;editable=1;overflow=hidden;whiteSpace=wrap;html=1;strokeColor=#b46504;" vertex="1" parent="ShnQOhTQohzyvP2IiLJO-5">
          <mxGeometry width="30" height="30" as="geometry">
            <mxRectangle width="30" height="30" as="alternateBounds" />
          </mxGeometry>
        </mxCell>
        <mxCell id="ShnQOhTQohzyvP2IiLJO-7" value="avaliação" style="shape=partialRectangle;connectable=0;fillColor=#fad7ac;top=0;left=0;bottom=0;right=0;align=left;spacingLeft=6;overflow=hidden;whiteSpace=wrap;html=1;strokeColor=#b46504;" vertex="1" parent="ShnQOhTQohzyvP2IiLJO-5">
          <mxGeometry x="30" width="130" height="30" as="geometry">
            <mxRectangle width="130" height="30" as="alternateBounds" />
          </mxGeometry>
        </mxCell>
        <mxCell id="b4Ed5deSRsEzmioH2m-q-1" value="Categoria" style="shape=table;startSize=30;container=1;collapsible=1;childLayout=tableLayout;fixedRows=1;rowLines=0;fontStyle=1;align=center;resizeLast=1;html=1;fillColor=#fad7ac;strokeColor=#b46504;" vertex="1" parent="1">
          <mxGeometry x="1000" y="680" width="160" height="90" as="geometry" />
        </mxCell>
        <mxCell id="b4Ed5deSRsEzmioH2m-q-2" value="" style="shape=tableRow;horizontal=0;startSize=0;swimlaneHead=0;swimlaneBody=0;fillColor=#fad7ac;collapsible=0;dropTarget=0;points=[[0,0.5],[1,0.5]];portConstraint=eastwest;top=0;left=0;right=0;bottom=1;strokeColor=#b46504;" vertex="1" parent="b4Ed5deSRsEzmioH2m-q-1">
          <mxGeometry y="30" width="160" height="30" as="geometry" />
        </mxCell>
        <mxCell id="b4Ed5deSRsEzmioH2m-q-3" value="PK" style="shape=partialRectangle;connectable=0;fillColor=#fad7ac;top=0;left=0;bottom=0;right=0;fontStyle=1;overflow=hidden;whiteSpace=wrap;html=1;strokeColor=#b46504;" vertex="1" parent="b4Ed5deSRsEzmioH2m-q-2">
          <mxGeometry width="30" height="30" as="geometry">
            <mxRectangle width="30" height="30" as="alternateBounds" />
          </mxGeometry>
        </mxCell>
        <mxCell id="b4Ed5deSRsEzmioH2m-q-4" value="id_categoria" style="shape=partialRectangle;connectable=0;fillColor=#fad7ac;top=0;left=0;bottom=0;right=0;align=left;spacingLeft=6;fontStyle=5;overflow=hidden;whiteSpace=wrap;html=1;strokeColor=#b46504;" vertex="1" parent="b4Ed5deSRsEzmioH2m-q-2">
          <mxGeometry x="30" width="130" height="30" as="geometry">
            <mxRectangle width="130" height="30" as="alternateBounds" />
          </mxGeometry>
        </mxCell>
        <mxCell id="b4Ed5deSRsEzmioH2m-q-5" value="" style="shape=tableRow;horizontal=0;startSize=0;swimlaneHead=0;swimlaneBody=0;fillColor=#fad7ac;collapsible=0;dropTarget=0;points=[[0,0.5],[1,0.5]];portConstraint=eastwest;top=0;left=0;right=0;bottom=0;strokeColor=#b46504;" vertex="1" parent="b4Ed5deSRsEzmioH2m-q-1">
          <mxGeometry y="60" width="160" height="30" as="geometry" />
        </mxCell>
        <mxCell id="b4Ed5deSRsEzmioH2m-q-6" value="" style="shape=partialRectangle;connectable=0;fillColor=#fad7ac;top=0;left=0;bottom=0;right=0;editable=1;overflow=hidden;whiteSpace=wrap;html=1;strokeColor=#b46504;" vertex="1" parent="b4Ed5deSRsEzmioH2m-q-5">
          <mxGeometry width="30" height="30" as="geometry">
            <mxRectangle width="30" height="30" as="alternateBounds" />
          </mxGeometry>
        </mxCell>
        <mxCell id="b4Ed5deSRsEzmioH2m-q-7" value="nome" style="shape=partialRectangle;connectable=0;fillColor=#fad7ac;top=0;left=0;bottom=0;right=0;align=left;spacingLeft=6;overflow=hidden;whiteSpace=wrap;html=1;strokeColor=#b46504;" vertex="1" parent="b4Ed5deSRsEzmioH2m-q-5">
          <mxGeometry x="30" width="130" height="30" as="geometry">
            <mxRectangle width="130" height="30" as="alternateBounds" />
          </mxGeometry>
        </mxCell>
        <mxCell id="b4Ed5deSRsEzmioH2m-q-14" value="Keyword" style="shape=table;startSize=30;container=1;collapsible=1;childLayout=tableLayout;fixedRows=1;rowLines=0;fontStyle=1;align=center;resizeLast=1;html=1;fillColor=#fad7ac;strokeColor=#b46504;" vertex="1" parent="1">
          <mxGeometry x="1200" y="280" width="160" height="90" as="geometry" />
        </mxCell>
        <mxCell id="b4Ed5deSRsEzmioH2m-q-15" value="" style="shape=tableRow;horizontal=0;startSize=0;swimlaneHead=0;swimlaneBody=0;fillColor=#fad7ac;collapsible=0;dropTarget=0;points=[[0,0.5],[1,0.5]];portConstraint=eastwest;top=0;left=0;right=0;bottom=1;strokeColor=#b46504;" vertex="1" parent="b4Ed5deSRsEzmioH2m-q-14">
          <mxGeometry y="30" width="160" height="30" as="geometry" />
        </mxCell>
        <mxCell id="b4Ed5deSRsEzmioH2m-q-16" value="PK" style="shape=partialRectangle;connectable=0;fillColor=#fad7ac;top=0;left=0;bottom=0;right=0;fontStyle=1;overflow=hidden;whiteSpace=wrap;html=1;strokeColor=#b46504;" vertex="1" parent="b4Ed5deSRsEzmioH2m-q-15">
          <mxGeometry width="30" height="30" as="geometry">
            <mxRectangle width="30" height="30" as="alternateBounds" />
          </mxGeometry>
        </mxCell>
        <mxCell id="b4Ed5deSRsEzmioH2m-q-17" value="id_keyword" style="shape=partialRectangle;connectable=0;fillColor=#fad7ac;top=0;left=0;bottom=0;right=0;align=left;spacingLeft=6;fontStyle=5;overflow=hidden;whiteSpace=wrap;html=1;strokeColor=#b46504;" vertex="1" parent="b4Ed5deSRsEzmioH2m-q-15">
          <mxGeometry x="30" width="130" height="30" as="geometry">
            <mxRectangle width="130" height="30" as="alternateBounds" />
          </mxGeometry>
        </mxCell>
        <mxCell id="b4Ed5deSRsEzmioH2m-q-18" value="" style="shape=tableRow;horizontal=0;startSize=0;swimlaneHead=0;swimlaneBody=0;fillColor=#fad7ac;collapsible=0;dropTarget=0;points=[[0,0.5],[1,0.5]];portConstraint=eastwest;top=0;left=0;right=0;bottom=0;strokeColor=#b46504;" vertex="1" parent="b4Ed5deSRsEzmioH2m-q-14">
          <mxGeometry y="60" width="160" height="30" as="geometry" />
        </mxCell>
        <mxCell id="b4Ed5deSRsEzmioH2m-q-19" value="" style="shape=partialRectangle;connectable=0;fillColor=#fad7ac;top=0;left=0;bottom=0;right=0;editable=1;overflow=hidden;whiteSpace=wrap;html=1;strokeColor=#b46504;" vertex="1" parent="b4Ed5deSRsEzmioH2m-q-18">
          <mxGeometry width="30" height="30" as="geometry">
            <mxRectangle width="30" height="30" as="alternateBounds" />
          </mxGeometry>
        </mxCell>
        <mxCell id="b4Ed5deSRsEzmioH2m-q-20" value="keyword" style="shape=partialRectangle;connectable=0;fillColor=#fad7ac;top=0;left=0;bottom=0;right=0;align=left;spacingLeft=6;overflow=hidden;whiteSpace=wrap;html=1;strokeColor=#b46504;" vertex="1" parent="b4Ed5deSRsEzmioH2m-q-18">
          <mxGeometry x="30" width="130" height="30" as="geometry">
            <mxRectangle width="130" height="30" as="alternateBounds" />
          </mxGeometry>
        </mxCell>
        <mxCell id="y7LuZ_0A7PbIzp3d1Xs9-1" value="" style="edgeStyle=entityRelationEdgeStyle;fontSize=12;html=1;endArrow=ERmany;endFill=0;rounded=0;startArrow=ERone;startFill=0;exitX=0;exitY=0.5;exitDx=0;exitDy=0;entryX=1;entryY=0.5;entryDx=0;entryDy=0;fillColor=#fad7ac;strokeColor=#a36519;" edge="1" parent="1" source="b4Ed5deSRsEzmioH2m-q-2" target="y7LuZ_0A7PbIzp3d1Xs9-2">
          <mxGeometry width="100" height="100" relative="1" as="geometry">
            <mxPoint x="1090" y="760" as="sourcePoint" />
            <mxPoint x="970" y="850" as="targetPoint" />
          </mxGeometry>
        </mxCell>
        <mxCell id="uNLPn-SzxVKE8QmWv7-G-4" value="" style="edgeStyle=entityRelationEdgeStyle;fontSize=12;html=1;endArrow=ERmany;endFill=0;rounded=0;startArrow=ERone;startFill=0;exitX=1;exitY=0.5;exitDx=0;exitDy=0;entryX=0;entryY=0.5;entryDx=0;entryDy=0;fillColor=#fad7ac;strokeColor=#a36519;" edge="1" parent="1" source="PIZJghyqFYwjqWkfC2DP-2" target="uNLPn-SzxVKE8QmWv7-G-1">
          <mxGeometry width="100" height="100" relative="1" as="geometry">
            <mxPoint x="570" y="495" as="sourcePoint" />
            <mxPoint x="690" y="555" as="targetPoint" />
          </mxGeometry>
        </mxCell>
        <mxCell id="xiKEK94kT7N_WLQPrIU4-4" value="Anúncio-Keyword" style="shape=table;startSize=30;container=1;collapsible=1;childLayout=tableLayout;fixedRows=1;rowLines=0;fontStyle=1;align=center;resizeLast=1;html=1;whiteSpace=wrap;fillColor=#fad7ac;strokeColor=#b46504;" vertex="1" parent="1">
          <mxGeometry x="960" y="280" width="160" height="90" as="geometry" />
        </mxCell>
        <mxCell id="xiKEK94kT7N_WLQPrIU4-5" value="" style="shape=tableRow;horizontal=0;startSize=0;swimlaneHead=0;swimlaneBody=0;fillColor=#fad7ac;collapsible=0;dropTarget=0;points=[[0,0.5],[1,0.5]];portConstraint=eastwest;top=0;left=0;right=0;bottom=0;html=1;strokeColor=#b46504;" vertex="1" parent="xiKEK94kT7N_WLQPrIU4-4">
          <mxGeometry y="30" width="160" height="30" as="geometry" />
        </mxCell>
        <mxCell id="xiKEK94kT7N_WLQPrIU4-6" value="PK,FK1" style="shape=partialRectangle;connectable=0;fillColor=#fad7ac;top=0;left=0;bottom=0;right=0;fontStyle=1;overflow=hidden;html=1;whiteSpace=wrap;strokeColor=#b46504;" vertex="1" parent="xiKEK94kT7N_WLQPrIU4-5">
          <mxGeometry width="60" height="30" as="geometry">
            <mxRectangle width="60" height="30" as="alternateBounds" />
          </mxGeometry>
        </mxCell>
        <mxCell id="xiKEK94kT7N_WLQPrIU4-7" value="id_anúncio" style="shape=partialRectangle;connectable=0;fillColor=#fad7ac;top=0;left=0;bottom=0;right=0;align=left;spacingLeft=6;fontStyle=5;overflow=hidden;html=1;whiteSpace=wrap;strokeColor=#b46504;" vertex="1" parent="xiKEK94kT7N_WLQPrIU4-5">
          <mxGeometry x="60" width="100" height="30" as="geometry">
            <mxRectangle width="100" height="30" as="alternateBounds" />
          </mxGeometry>
        </mxCell>
        <mxCell id="xiKEK94kT7N_WLQPrIU4-8" value="" style="shape=tableRow;horizontal=0;startSize=0;swimlaneHead=0;swimlaneBody=0;fillColor=#fad7ac;collapsible=0;dropTarget=0;points=[[0,0.5],[1,0.5]];portConstraint=eastwest;top=0;left=0;right=0;bottom=1;html=1;strokeColor=#b46504;" vertex="1" parent="xiKEK94kT7N_WLQPrIU4-4">
          <mxGeometry y="60" width="160" height="30" as="geometry" />
        </mxCell>
        <mxCell id="xiKEK94kT7N_WLQPrIU4-9" value="PK,FK2" style="shape=partialRectangle;connectable=0;fillColor=#fad7ac;top=0;left=0;bottom=0;right=0;fontStyle=1;overflow=hidden;html=1;whiteSpace=wrap;strokeColor=#b46504;" vertex="1" parent="xiKEK94kT7N_WLQPrIU4-8">
          <mxGeometry width="60" height="30" as="geometry">
            <mxRectangle width="60" height="30" as="alternateBounds" />
          </mxGeometry>
        </mxCell>
        <mxCell id="xiKEK94kT7N_WLQPrIU4-10" value="id_keyword" style="shape=partialRectangle;connectable=0;fillColor=#fad7ac;top=0;left=0;bottom=0;right=0;align=left;spacingLeft=6;fontStyle=5;overflow=hidden;html=1;whiteSpace=wrap;strokeColor=#b46504;" vertex="1" parent="xiKEK94kT7N_WLQPrIU4-8">
          <mxGeometry x="60" width="100" height="30" as="geometry">
            <mxRectangle width="100" height="30" as="alternateBounds" />
          </mxGeometry>
        </mxCell>
        <mxCell id="xiKEK94kT7N_WLQPrIU4-29" value="" style="edgeStyle=entityRelationEdgeStyle;fontSize=12;html=1;endArrow=ERmany;endFill=0;rounded=0;startArrow=ERone;startFill=0;exitX=0;exitY=0.5;exitDx=0;exitDy=0;entryX=1;entryY=0.5;entryDx=0;entryDy=0;fillColor=#fad7ac;strokeColor=#a36519;" edge="1" parent="1" source="b4Ed5deSRsEzmioH2m-q-15" target="xiKEK94kT7N_WLQPrIU4-8">
          <mxGeometry width="100" height="100" relative="1" as="geometry">
            <mxPoint x="970" y="950" as="sourcePoint" />
            <mxPoint x="850" y="1040" as="targetPoint" />
          </mxGeometry>
        </mxCell>
        <mxCell id="xiKEK94kT7N_WLQPrIU4-30" value="" style="edgeStyle=entityRelationEdgeStyle;fontSize=12;html=1;endArrow=ERmany;endFill=0;rounded=0;startArrow=ERone;startFill=0;exitX=1;exitY=0.5;exitDx=0;exitDy=0;entryX=0;entryY=0.5;entryDx=0;entryDy=0;fillColor=#fad7ac;strokeColor=#a36519;" edge="1" parent="1" source="fUuvGY4VHOJeTKYVbZ2F-18" target="xiKEK94kT7N_WLQPrIU4-5">
          <mxGeometry width="100" height="100" relative="1" as="geometry">
            <mxPoint x="1070" y="390" as="sourcePoint" />
            <mxPoint x="990" y="420" as="targetPoint" />
          </mxGeometry>
        </mxCell>
        <mxCell id="gTT9SnExp7imCi-irz2J-11" value="Comentário" style="shape=table;startSize=30;container=1;collapsible=1;childLayout=tableLayout;fixedRows=1;rowLines=0;fontStyle=1;align=center;resizeLast=1;html=1;whiteSpace=wrap;fillColor=#fad7ac;strokeColor=#b46504;" vertex="1" parent="1">
          <mxGeometry x="180" y="440" width="160" height="120" as="geometry" />
        </mxCell>
        <mxCell id="gTT9SnExp7imCi-irz2J-12" value="" style="shape=tableRow;horizontal=0;startSize=0;swimlaneHead=0;swimlaneBody=0;fillColor=#fad7ac;collapsible=0;dropTarget=0;points=[[0,0.5],[1,0.5]];portConstraint=eastwest;top=0;left=0;right=0;bottom=0;html=1;strokeColor=#b46504;" vertex="1" parent="gTT9SnExp7imCi-irz2J-11">
          <mxGeometry y="30" width="160" height="30" as="geometry" />
        </mxCell>
        <mxCell id="gTT9SnExp7imCi-irz2J-13" value="PK,FK1" style="shape=partialRectangle;connectable=0;fillColor=#fad7ac;top=0;left=0;bottom=0;right=0;fontStyle=1;overflow=hidden;html=1;whiteSpace=wrap;strokeColor=#b46504;" vertex="1" parent="gTT9SnExp7imCi-irz2J-12">
          <mxGeometry width="60" height="30" as="geometry">
            <mxRectangle width="60" height="30" as="alternateBounds" />
          </mxGeometry>
        </mxCell>
        <mxCell id="gTT9SnExp7imCi-irz2J-14" value="id_anúncio" style="shape=partialRectangle;connectable=0;fillColor=#fad7ac;top=0;left=0;bottom=0;right=0;align=left;spacingLeft=6;fontStyle=5;overflow=hidden;html=1;whiteSpace=wrap;strokeColor=#b46504;" vertex="1" parent="gTT9SnExp7imCi-irz2J-12">
          <mxGeometry x="60" width="100" height="30" as="geometry">
            <mxRectangle width="100" height="30" as="alternateBounds" />
          </mxGeometry>
        </mxCell>
        <mxCell id="gTT9SnExp7imCi-irz2J-15" value="" style="shape=tableRow;horizontal=0;startSize=0;swimlaneHead=0;swimlaneBody=0;fillColor=#fad7ac;collapsible=0;dropTarget=0;points=[[0,0.5],[1,0.5]];portConstraint=eastwest;top=0;left=0;right=0;bottom=1;html=1;strokeColor=#b46504;" vertex="1" parent="gTT9SnExp7imCi-irz2J-11">
          <mxGeometry y="60" width="160" height="30" as="geometry" />
        </mxCell>
        <mxCell id="gTT9SnExp7imCi-irz2J-16" value="PK,FK2" style="shape=partialRectangle;connectable=0;fillColor=#fad7ac;top=0;left=0;bottom=0;right=0;fontStyle=1;overflow=hidden;html=1;whiteSpace=wrap;strokeColor=#b46504;" vertex="1" parent="gTT9SnExp7imCi-irz2J-15">
          <mxGeometry width="60" height="30" as="geometry">
            <mxRectangle width="60" height="30" as="alternateBounds" />
          </mxGeometry>
        </mxCell>
        <mxCell id="gTT9SnExp7imCi-irz2J-17" value="id_utilizador" style="shape=partialRectangle;connectable=0;fillColor=#fad7ac;top=0;left=0;bottom=0;right=0;align=left;spacingLeft=6;fontStyle=5;overflow=hidden;html=1;whiteSpace=wrap;strokeColor=#b46504;" vertex="1" parent="gTT9SnExp7imCi-irz2J-15">
          <mxGeometry x="60" width="100" height="30" as="geometry">
            <mxRectangle width="100" height="30" as="alternateBounds" />
          </mxGeometry>
        </mxCell>
        <mxCell id="gTT9SnExp7imCi-irz2J-18" value="" style="shape=tableRow;horizontal=0;startSize=0;swimlaneHead=0;swimlaneBody=0;fillColor=#fad7ac;collapsible=0;dropTarget=0;points=[[0,0.5],[1,0.5]];portConstraint=eastwest;top=0;left=0;right=0;bottom=0;html=1;strokeColor=#b46504;" vertex="1" parent="gTT9SnExp7imCi-irz2J-11">
          <mxGeometry y="90" width="160" height="30" as="geometry" />
        </mxCell>
        <mxCell id="gTT9SnExp7imCi-irz2J-19" value="" style="shape=partialRectangle;connectable=0;fillColor=#fad7ac;top=0;left=0;bottom=0;right=0;editable=1;overflow=hidden;html=1;whiteSpace=wrap;strokeColor=#b46504;" vertex="1" parent="gTT9SnExp7imCi-irz2J-18">
          <mxGeometry width="60" height="30" as="geometry">
            <mxRectangle width="60" height="30" as="alternateBounds" />
          </mxGeometry>
        </mxCell>
        <mxCell id="gTT9SnExp7imCi-irz2J-20" value="comentário" style="shape=partialRectangle;connectable=0;fillColor=#fad7ac;top=0;left=0;bottom=0;right=0;align=left;spacingLeft=6;overflow=hidden;html=1;whiteSpace=wrap;strokeColor=#b46504;" vertex="1" parent="gTT9SnExp7imCi-irz2J-18">
          <mxGeometry x="60" width="100" height="30" as="geometry">
            <mxRectangle width="100" height="30" as="alternateBounds" />
          </mxGeometry>
        </mxCell>
        <mxCell id="utBfOdH9aumscuC5ozlD-4" value="" style="edgeStyle=entityRelationEdgeStyle;fontSize=12;html=1;endArrow=ERone;endFill=0;rounded=0;startArrow=ERmany;startFill=0;exitX=1;exitY=0.5;exitDx=0;exitDy=0;entryX=0;entryY=0.5;entryDx=0;entryDy=0;fillColor=#fad7ac;strokeColor=#a36519;" edge="1" parent="1" source="gTT9SnExp7imCi-irz2J-15" target="fUuvGY4VHOJeTKYVbZ2F-2">
          <mxGeometry width="100" height="100" relative="1" as="geometry">
            <mxPoint x="380" y="490" as="sourcePoint" />
            <mxPoint x="500" y="280" as="targetPoint" />
          </mxGeometry>
        </mxCell>
        <mxCell id="utBfOdH9aumscuC5ozlD-5" value="" style="edgeStyle=entityRelationEdgeStyle;fontSize=12;html=1;endArrow=ERone;endFill=0;rounded=0;startArrow=ERmany;startFill=0;exitX=1;exitY=0.5;exitDx=0;exitDy=0;entryX=0;entryY=0.5;entryDx=0;entryDy=0;fillColor=#fad7ac;strokeColor=#a36519;" edge="1" parent="1" source="gTT9SnExp7imCi-irz2J-12" target="fUuvGY4VHOJeTKYVbZ2F-18">
          <mxGeometry width="100" height="100" relative="1" as="geometry">
            <mxPoint x="470" y="280" as="sourcePoint" />
            <mxPoint x="530" y="520" as="targetPoint" />
          </mxGeometry>
        </mxCell>
        <mxCell id="HPZsKZVS7MGn34pNccwh-1" value="Anúncio-Localidade" style="shape=table;startSize=30;container=1;collapsible=1;childLayout=tableLayout;fixedRows=1;rowLines=0;fontStyle=1;align=center;resizeLast=1;html=1;whiteSpace=wrap;fillColor=#fad7ac;strokeColor=#b46504;" vertex="1" parent="1">
          <mxGeometry x="1000" y="440" width="160" height="90" as="geometry" />
        </mxCell>
        <mxCell id="HPZsKZVS7MGn34pNccwh-2" value="" style="shape=tableRow;horizontal=0;startSize=0;swimlaneHead=0;swimlaneBody=0;fillColor=#fad7ac;collapsible=0;dropTarget=0;points=[[0,0.5],[1,0.5]];portConstraint=eastwest;top=0;left=0;right=0;bottom=0;html=1;strokeColor=#b46504;" vertex="1" parent="HPZsKZVS7MGn34pNccwh-1">
          <mxGeometry y="30" width="160" height="30" as="geometry" />
        </mxCell>
        <mxCell id="HPZsKZVS7MGn34pNccwh-3" value="PK,FK1" style="shape=partialRectangle;connectable=0;fillColor=#fad7ac;top=0;left=0;bottom=0;right=0;fontStyle=1;overflow=hidden;html=1;whiteSpace=wrap;strokeColor=#b46504;" vertex="1" parent="HPZsKZVS7MGn34pNccwh-2">
          <mxGeometry width="60" height="30" as="geometry">
            <mxRectangle width="60" height="30" as="alternateBounds" />
          </mxGeometry>
        </mxCell>
        <mxCell id="HPZsKZVS7MGn34pNccwh-4" value="id_anúncio" style="shape=partialRectangle;connectable=0;fillColor=#fad7ac;top=0;left=0;bottom=0;right=0;align=left;spacingLeft=6;fontStyle=5;overflow=hidden;html=1;whiteSpace=wrap;strokeColor=#b46504;" vertex="1" parent="HPZsKZVS7MGn34pNccwh-2">
          <mxGeometry x="60" width="100" height="30" as="geometry">
            <mxRectangle width="100" height="30" as="alternateBounds" />
          </mxGeometry>
        </mxCell>
        <mxCell id="HPZsKZVS7MGn34pNccwh-5" value="" style="shape=tableRow;horizontal=0;startSize=0;swimlaneHead=0;swimlaneBody=0;fillColor=#fad7ac;collapsible=0;dropTarget=0;points=[[0,0.5],[1,0.5]];portConstraint=eastwest;top=0;left=0;right=0;bottom=1;html=1;strokeColor=#b46504;" vertex="1" parent="HPZsKZVS7MGn34pNccwh-1">
          <mxGeometry y="60" width="160" height="30" as="geometry" />
        </mxCell>
        <mxCell id="HPZsKZVS7MGn34pNccwh-6" value="PK,FK2" style="shape=partialRectangle;connectable=0;fillColor=#fad7ac;top=0;left=0;bottom=0;right=0;fontStyle=1;overflow=hidden;html=1;whiteSpace=wrap;strokeColor=#b46504;" vertex="1" parent="HPZsKZVS7MGn34pNccwh-5">
          <mxGeometry width="60" height="30" as="geometry">
            <mxRectangle width="60" height="30" as="alternateBounds" />
          </mxGeometry>
        </mxCell>
        <mxCell id="HPZsKZVS7MGn34pNccwh-7" value="id_localidade" style="shape=partialRectangle;connectable=0;fillColor=#fad7ac;top=0;left=0;bottom=0;right=0;align=left;spacingLeft=6;fontStyle=5;overflow=hidden;html=1;whiteSpace=wrap;strokeColor=#b46504;" vertex="1" parent="HPZsKZVS7MGn34pNccwh-5">
          <mxGeometry x="60" width="100" height="30" as="geometry">
            <mxRectangle width="100" height="30" as="alternateBounds" />
          </mxGeometry>
        </mxCell>
        <mxCell id="mqCopa0_mJ6u1y2XnPMg-1" value="" style="edgeStyle=entityRelationEdgeStyle;fontSize=12;html=1;endArrow=ERmany;endFill=0;rounded=0;startArrow=ERone;startFill=0;exitX=1;exitY=0.5;exitDx=0;exitDy=0;entryX=0;entryY=0.5;entryDx=0;entryDy=0;fillColor=#fad7ac;strokeColor=#a36519;" edge="1" parent="1" source="fUuvGY4VHOJeTKYVbZ2F-18" target="HPZsKZVS7MGn34pNccwh-2">
          <mxGeometry width="100" height="100" relative="1" as="geometry">
            <mxPoint x="850" y="495" as="sourcePoint" />
            <mxPoint x="970" y="335" as="targetPoint" />
          </mxGeometry>
        </mxCell>
        <mxCell id="mqCopa0_mJ6u1y2XnPMg-2" value="" style="edgeStyle=entityRelationEdgeStyle;fontSize=12;html=1;endArrow=ERmany;endFill=0;rounded=0;startArrow=ERone;startFill=0;exitX=0;exitY=0.5;exitDx=0;exitDy=0;entryX=1;entryY=0.5;entryDx=0;entryDy=0;fillColor=#fad7ac;strokeColor=#a36519;" edge="1" parent="1" source="fUuvGY4VHOJeTKYVbZ2F-59" target="HPZsKZVS7MGn34pNccwh-5">
          <mxGeometry width="100" height="100" relative="1" as="geometry">
            <mxPoint x="1470" y="530" as="sourcePoint" />
            <mxPoint x="1310" y="410" as="targetPoint" />
          </mxGeometry>
        </mxCell>
        <mxCell id="BxhcYpXF7uzP125Q3Rgf-1" value="Utilizador-Avaliação" style="shape=table;startSize=30;container=1;collapsible=1;childLayout=tableLayout;fixedRows=1;rowLines=0;fontStyle=1;align=center;resizeLast=1;html=1;whiteSpace=wrap;fillColor=#fad7ac;strokeColor=#b46504;" vertex="1" parent="1">
          <mxGeometry x="680" y="800" width="160" height="90" as="geometry" />
        </mxCell>
        <mxCell id="BxhcYpXF7uzP125Q3Rgf-2" value="" style="shape=tableRow;horizontal=0;startSize=0;swimlaneHead=0;swimlaneBody=0;fillColor=#fad7ac;collapsible=0;dropTarget=0;points=[[0,0.5],[1,0.5]];portConstraint=eastwest;top=0;left=0;right=0;bottom=0;html=1;strokeColor=#b46504;" vertex="1" parent="BxhcYpXF7uzP125Q3Rgf-1">
          <mxGeometry y="30" width="160" height="30" as="geometry" />
        </mxCell>
        <mxCell id="BxhcYpXF7uzP125Q3Rgf-3" value="PK,FK1" style="shape=partialRectangle;connectable=0;fillColor=#fad7ac;top=0;left=0;bottom=0;right=0;fontStyle=1;overflow=hidden;html=1;whiteSpace=wrap;strokeColor=#b46504;" vertex="1" parent="BxhcYpXF7uzP125Q3Rgf-2">
          <mxGeometry width="60" height="30" as="geometry">
            <mxRectangle width="60" height="30" as="alternateBounds" />
          </mxGeometry>
        </mxCell>
        <mxCell id="BxhcYpXF7uzP125Q3Rgf-4" value="id_avaliação" style="shape=partialRectangle;connectable=0;fillColor=#fad7ac;top=0;left=0;bottom=0;right=0;align=left;spacingLeft=6;fontStyle=5;overflow=hidden;html=1;whiteSpace=wrap;strokeColor=#b46504;" vertex="1" parent="BxhcYpXF7uzP125Q3Rgf-2">
          <mxGeometry x="60" width="100" height="30" as="geometry">
            <mxRectangle width="100" height="30" as="alternateBounds" />
          </mxGeometry>
        </mxCell>
        <mxCell id="BxhcYpXF7uzP125Q3Rgf-5" value="" style="shape=tableRow;horizontal=0;startSize=0;swimlaneHead=0;swimlaneBody=0;fillColor=#fad7ac;collapsible=0;dropTarget=0;points=[[0,0.5],[1,0.5]];portConstraint=eastwest;top=0;left=0;right=0;bottom=1;html=1;strokeColor=#b46504;" vertex="1" parent="BxhcYpXF7uzP125Q3Rgf-1">
          <mxGeometry y="60" width="160" height="30" as="geometry" />
        </mxCell>
        <mxCell id="BxhcYpXF7uzP125Q3Rgf-6" value="PK,FK2" style="shape=partialRectangle;connectable=0;fillColor=#fad7ac;top=0;left=0;bottom=0;right=0;fontStyle=1;overflow=hidden;html=1;whiteSpace=wrap;strokeColor=#b46504;" vertex="1" parent="BxhcYpXF7uzP125Q3Rgf-5">
          <mxGeometry width="60" height="30" as="geometry">
            <mxRectangle width="60" height="30" as="alternateBounds" />
          </mxGeometry>
        </mxCell>
        <mxCell id="BxhcYpXF7uzP125Q3Rgf-7" value="id_utilizador" style="shape=partialRectangle;connectable=0;fillColor=#fad7ac;top=0;left=0;bottom=0;right=0;align=left;spacingLeft=6;fontStyle=5;overflow=hidden;html=1;whiteSpace=wrap;strokeColor=#b46504;" vertex="1" parent="BxhcYpXF7uzP125Q3Rgf-5">
          <mxGeometry x="60" width="100" height="30" as="geometry">
            <mxRectangle width="100" height="30" as="alternateBounds" />
          </mxGeometry>
        </mxCell>
        <mxCell id="sxHHEDmEQ3tv6VaEm6RJ-1" value="" style="edgeStyle=entityRelationEdgeStyle;fontSize=12;html=1;endArrow=ERone;endFill=0;rounded=0;startArrow=ERmany;startFill=0;exitX=1;exitY=0.5;exitDx=0;exitDy=0;entryX=0;entryY=0.5;entryDx=0;entryDy=0;fillColor=#fad7ac;strokeColor=#a36519;" edge="1" parent="1" source="BxhcYpXF7uzP125Q3Rgf-2" target="ShnQOhTQohzyvP2IiLJO-2">
          <mxGeometry width="100" height="100" relative="1" as="geometry">
            <mxPoint x="840" y="800" as="sourcePoint" />
            <mxPoint x="900" y="1040" as="targetPoint" />
          </mxGeometry>
        </mxCell>
        <mxCell id="sxHHEDmEQ3tv6VaEm6RJ-2" value="" style="edgeStyle=entityRelationEdgeStyle;fontSize=12;html=1;endArrow=ERmany;endFill=0;rounded=0;startArrow=ERone;startFill=0;entryX=0;entryY=0.5;entryDx=0;entryDy=0;fillColor=#fad7ac;strokeColor=#a36519;exitX=1;exitY=0.5;exitDx=0;exitDy=0;" edge="1" parent="1" source="fUuvGY4VHOJeTKYVbZ2F-2" target="BxhcYpXF7uzP125Q3Rgf-5">
          <mxGeometry width="100" height="100" relative="1" as="geometry">
            <mxPoint x="590" y="740" as="sourcePoint" />
            <mxPoint x="640" y="840" as="targetPoint" />
          </mxGeometry>
        </mxCell>
        <mxCell id="sxHHEDmEQ3tv6VaEm6RJ-3" value="" style="edgeStyle=entityRelationEdgeStyle;fontSize=12;html=1;endArrow=ERone;endFill=0;rounded=0;startArrow=ERmany;startFill=0;exitX=1;exitY=0.5;exitDx=0;exitDy=0;entryX=0;entryY=0.5;entryDx=0;entryDy=0;fillColor=#fad7ac;strokeColor=#a36519;" edge="1" parent="1" source="lr6BkFhm6aB_RkrGeUvo-1" target="ShnQOhTQohzyvP2IiLJO-2">
          <mxGeometry width="100" height="100" relative="1" as="geometry">
            <mxPoint x="720" y="740" as="sourcePoint" />
            <mxPoint x="880" y="740" as="targetPoint" />
          </mxGeometry>
        </mxCell>
      </root>
    </mxGraphModel>
  </diagram>
</mxfile>
